<svg width="20" height="20" viewBox="0 0 20 20" fill="none" xmlns="http://www.w3.org/2000/svg">
<path d="M10.0005 20C5.33349 13.91 3.00049 9.577 3.00049 7C3.00049 6.08075 3.18155 5.1705 3.53333 4.32122C3.88511 3.47194 4.40073 2.70026 5.05074 2.05025C5.70075 1.40024 6.47242 0.884626 7.3217 0.532843C8.17098 0.18106 9.08123 0 10.0005 0C10.9197 0 11.83 0.18106 12.6793 0.532843C13.5286 0.884626 14.3002 1.40024 14.9502 2.05025C15.6002 2.70026 16.1159 3.47194 16.4676 4.32122C16.8194 5.1705 17.0005 6.08075 17.0005 7C17.0005 9.577 14.6675 13.91 10.0005 20ZM10.0005 11C11.0614 11 12.0788 10.5786 12.8289 9.82843C13.5791 9.07828 14.0005 8.06087 14.0005 7C14.0005 5.93913 13.5791 4.92172 12.8289 4.17157C12.0788 3.42143 11.0614 3 10.0005 3C8.93962 3 7.92221 3.42143 7.17206 4.17157C6.42192 4.92172 6.00049 5.93913 6.00049 7C6.00049 8.06087 6.42192 9.07828 7.17206 9.82843C7.92221 10.5786 8.93962 11 10.0005 11Z" fill="#FFAE63"/>
</svg>
