<svg width="18" height="19" viewBox="0 0 18 19" fill="none" xmlns="http://www.w3.org/2000/svg">
<path opacity="0.5" d="M16.4937 12.2894L10.8169 9.77081C12.3421 9.00351 13.4059 7.32447 13.4059 5.35657C13.4059 2.67553 11.4383 0.5 9 0.5C6.56172 0.5 4.59414 2.67553 4.59414 5.35657C4.59414 7.32447 5.65795 9.00351 7.18305 9.77081L1.49686 12.2894L0 15.7919C0 15.7919 3.43619 18.4549 8.9341 18.5C8.95293 18.5 8.97176 18.5 9 18.5C9.01883 18.5 9.03766 18.5 9.0659 18.5C14.5544 18.4549 18 15.7919 18 15.7919L16.4937 12.2894Z" fill="#FFAE63"/>
</svg>
