<svg width="52" height="52" viewBox="0 0 52 52" fill="none" xmlns="http://www.w3.org/2000/svg">
<g clip-path="url(#clip0)">
<path d="M41.5996 16.1379H43.3331V19.6048H41.5996V16.1379Z" fill="#FFAE63"/>
<path d="M38.1328 16.1379H39.8663V19.6048H38.1328V16.1379Z" fill="#FFAE63"/>
<path d="M34.666 16.1379H36.3994V19.6048H34.666V16.1379Z" fill="#FFAE63"/>
<path d="M31.2012 16.1379H32.9346V19.6048H31.2012V16.1379Z" fill="#FFAE63"/>
<path d="M41.5996 32.606H43.3331V34.3394H41.5996V32.606Z" fill="#FFAE63"/>
<path d="M38.1328 32.606H39.8663V34.3394H38.1328V32.606Z" fill="#FFAE63"/>
<path d="M34.666 32.606H36.3994V34.3394H34.666V32.606Z" fill="#FFAE63"/>
<path d="M31.2012 32.606H32.9346V34.3394H31.2012V32.606Z" fill="#FFAE63"/>
<path d="M2.59931 29.9405V35.206C2.60228 37.5984 4.54097 39.5366 6.93292 39.5396H22.6016L38.0291 46.9431C38.9957 47.4061 40.1066 47.4654 41.1168 47.1073C42.127 46.7497 42.9531 46.0045 43.4122 45.0362L46.0924 39.4025C48.0298 38.9319 49.3959 37.1997 49.4023 35.206V32.4463L51.608 27.8131C52.5657 25.7978 51.7172 23.3876 49.7082 22.4168L49.4023 22.2704V16.1382C49.3993 13.7458 47.461 11.8075 45.0686 11.8046H27.5946L13.9742 5.26775C13.008 4.80476 11.8967 4.74552 10.8869 5.10355C9.87672 5.46115 9.05063 6.20641 8.59103 7.1747L6.3599 11.8625C4.21299 12.1457 2.60609 13.9726 2.59931 16.1382V19.7637L0.393576 24.3978C-0.563711 26.4131 0.284813 28.8233 2.29334 29.7941L2.59931 29.9405ZM49.4023 24.2654C50.2381 24.9391 50.5026 26.0978 50.0421 27.0674L49.4023 28.4119V24.2654ZM41.8447 44.2867C41.5836 44.8394 41.1134 45.2651 40.5378 45.4695C39.9618 45.6744 39.3283 45.6409 38.7773 45.3769L26.6077 39.5396H44.1067L41.8447 44.2867ZM47.6688 35.206C47.6688 36.6419 46.5046 37.8062 45.0686 37.8062H16.4669V27.7834C18.3945 29.6379 20.9668 30.6722 23.6418 30.6688V28.9354C21.4166 28.9379 19.2765 28.0793 17.6709 26.5388H47.6688V35.206ZM17.2747 24.267L18.9803 19.9813C19.318 19.1509 20.1733 18.6528 21.062 18.7696C21.9507 18.886 22.6486 19.5877 22.7603 20.4773C22.872 21.3664 22.3693 22.2192 21.5373 22.5518L17.2747 24.267ZM45.0686 13.538C46.5046 13.538 47.6688 14.7022 47.6688 16.1382V24.8054H20.5855L22.1839 24.1638C23.7565 23.5404 24.7079 21.9318 24.4971 20.2534C24.2864 18.575 22.9664 17.2516 21.2888 17.0362C19.6108 16.8208 17.9997 17.7679 17.3717 19.3388L16.4669 21.6106V13.538H45.0686ZM10.1573 7.92081C10.418 7.36811 10.8882 6.94237 11.4642 6.73753C12.0397 6.53313 12.6733 6.56656 13.2247 6.83064L23.5898 11.8046H8.30833L10.1573 7.92081ZM4.33276 16.1382C4.33276 14.7022 5.49699 13.538 6.93292 13.538H14.7334V21.0058L14.0694 19.3388C13.4384 17.776 11.8311 16.8364 10.1594 17.0535C8.48777 17.2702 7.1733 18.5881 6.9617 20.2606C6.74967 21.9327 7.69384 23.537 9.25842 24.1638L10.8556 24.8054H4.33276V16.1382ZM14.1676 24.267L9.90508 22.5518C9.06502 22.223 8.55421 21.3668 8.66382 20.4713C8.77343 19.5758 9.47595 18.8687 10.3706 18.7523C11.2653 18.6359 12.1248 19.1399 12.46 19.9779L14.1676 24.267ZM4.33276 26.5388H13.7706C12.1646 28.0793 10.0248 28.9379 7.79964 28.9354V30.6688C10.3617 30.6714 12.8328 29.7213 14.7334 28.0035V37.8062H6.93292C5.49699 37.8062 4.33276 36.6419 4.33276 35.206V26.5388ZM1.95985 25.1435L2.59931 23.7981V27.9455C1.76349 27.2718 1.49898 26.1131 1.95985 25.1435Z" fill="#FFAE63"/>
</g>
<defs>
<clipPath id="clip0">
<rect width="52" height="52" fill="white"/>
</clipPath>
</defs>
</svg>
