<svg width="52" height="52" viewBox="0 0 52 52" fill="none" xmlns="http://www.w3.org/2000/svg">
<path d="M30.058 42.3333H36.498L26.378 9.21325H17.04L6.92 42.3333H13.36L15.476 35.4333H27.942L30.058 42.3333ZM17.224 29.5913L21.64 15.0552L26.148 29.5913H17.224Z" fill="white"/>
<path d="M30.058 42.3333L29.1019 42.6264L29.3187 43.3333H30.058V42.3333ZM36.498 42.3333V43.3333H37.8492L37.4544 42.041L36.498 42.3333ZM26.378 9.21325L27.3344 8.92103L27.1181 8.21325H26.378V9.21325ZM17.04 9.21325V8.21325H16.2999L16.0836 8.92103L17.04 9.21325ZM6.92 42.3333L5.96365 42.041L5.5688 43.3333H6.92V42.3333ZM13.36 42.3333V43.3333H14.0993L14.3161 42.6264L13.36 42.3333ZM15.476 35.4333V34.4333H14.7367L14.5199 35.1401L15.476 35.4333ZM27.942 35.4333L28.8981 35.1401L28.6813 34.4333H27.942V35.4333ZM17.224 29.5913L16.2672 29.3006L15.8751 30.5913H17.224V29.5913ZM21.64 15.0552L22.5951 14.759L21.6301 11.6475L20.6832 14.7646L21.64 15.0552ZM26.148 29.5913V30.5913H27.5051L27.1031 29.295L26.148 29.5913ZM30.058 43.3333H36.498V41.3333H30.058V43.3333ZM37.4544 42.041L27.3344 8.92103L25.4216 9.50547L35.5417 42.6255L37.4544 42.041ZM26.378 8.21325H17.04V10.2133H26.378V8.21325ZM16.0836 8.92103L5.96365 42.041L7.87635 42.6255L17.9964 9.50547L16.0836 8.92103ZM6.92 43.3333H13.36V41.3333H6.92V43.3333ZM14.3161 42.6264L16.4321 35.7264L14.5199 35.1401L12.4039 42.0401L14.3161 42.6264ZM15.476 36.4333H27.942V34.4333H15.476V36.4333ZM26.9859 35.7264L29.1019 42.6264L31.0141 42.0401L28.8981 35.1401L26.9859 35.7264ZM18.1808 29.8819L22.5968 15.3459L20.6832 14.7646L16.2672 29.3006L18.1808 29.8819ZM20.6849 15.3515L25.1929 29.8875L27.1031 29.295L22.5951 14.759L20.6849 15.3515ZM26.148 28.5913H17.224V30.5913H26.148V28.5913Z" fill="#FFAE63"/>
<rect x="44" y="5" width="2" height="42" fill="#FFAE63"/>
</svg>
