<svg width="48" height="48" viewBox="0 0 48 48" fill="none" xmlns="http://www.w3.org/2000/svg">
<path d="M44 28.5214V7.99997C44 5.79394 42.2061 3.99994 39.9999 3.99994H33.9999V0.999938C34 0.447281 33.5527 0 33 0C32.4473 0 32 0.447281 32 1.00003V4.00003H14V1.00003C14 0.447281 13.5528 0 13 0C12.4473 0 12 0.447281 12 1.00003V4.00003H4.00003C1.79391 4.00003 0 5.79394 0 7.99997V39.9999C0 42.206 1.79391 44 4.00003 44H28.5214C30.5407 46.4415 33.5916 48 37 48C43.0655 48 48 43.0655 48 37C48 33.5916 46.4415 30.5407 44 28.5214ZM1.99997 7.99997C1.99997 6.89747 2.89744 6 4.00003 6H12V7.99997C10.8965 7.99997 10 8.89744 10 9.99994C10 11.1024 10.8966 11.9999 12 11.9999C13.1034 11.9999 14 11.1024 14 9.99994V6H32V7.99997C30.8964 7.99997 30 8.89744 30 9.99994C30 11.1024 30.8965 11.9999 32 11.9999C33.1035 11.9999 33.9999 11.1024 33.9999 9.99994V6H39.9999C41.1025 6 42 6.89747 42 7.99997V14H1.99997V7.99997ZM4.00003 42C2.89753 42 2.00006 41.1025 2.00006 40V16H42V27.2144C40.4978 26.4438 38.8012 26.0001 37 26.0001C30.9346 26.0001 26.0001 30.9346 26.0001 37C26.0001 38.8012 26.4438 40.4978 27.2144 42H4.00003ZM37 46C32.0371 46 28 41.9629 28 37C28 32.0372 32.0372 28 37 28C41.9629 28 46 32.0372 46 37C46 41.9629 41.9629 46 37 46Z" fill="#FFAE63"/>
<path d="M41.2929 33.293L35 39.586L32.707 37.293C32.3164 36.9024 31.6836 36.9024 31.293 37.293C30.9023 37.6837 30.9023 38.3165 31.293 38.7071L34.293 41.7071C34.4883 41.9023 34.7442 42 35.0001 42C35.2559 42 35.5117 41.9023 35.7071 41.7071L42.7071 34.707C43.0978 34.3164 43.0978 33.6836 42.7071 33.293C42.3164 32.9023 41.6836 32.9023 41.2929 33.293Z" fill="#FFAE63"/>
</svg>
