<svg width="48" height="48" viewBox="0 0 48 48" fill="none" xmlns="http://www.w3.org/2000/svg">
<g clip-path="url(#clip0)">
<path d="M6.15521 35.1599C6.23536 35.2389 6.33186 35.3 6.43809 35.3382V47.2031C6.43809 47.6432 6.79489 48 7.23497 48H43.8918C44.3319 48 44.6887 47.6432 44.6887 47.2031V28.0778C44.6887 27.6378 44.3319 27.281 43.8918 27.281H39.9011C40.7089 26.2273 41.5011 24.9557 41.5011 24.0934C41.5004 22.7681 40.6793 21.5817 39.4397 21.1136C38.1996 20.6455 36.7996 20.9934 35.9229 21.9872C35.0463 20.9934 33.6463 20.6455 32.4062 21.1136C31.1665 21.5817 30.3455 22.7681 30.3447 24.0934C30.3447 24.9557 31.1369 26.2273 31.9447 27.281H15.1607L18.5509 23.8911L24.1856 18.256L35.456 6.98561C35.7669 6.67471 35.7669 6.17004 35.456 5.85915L29.8214 0.224125C29.505 -0.0747082 29.0105 -0.0747082 28.6945 0.224125L21.2688 7.64942C18.6665 5.61207 15.5649 4.33852 14.0435 5.85915C13.0451 6.85759 13.2556 8.54125 14.0937 10.316L10.6132 13.7977C8.8377 12.9599 7.15365 12.749 6.15521 13.7483C4.63536 15.2669 5.9089 18.3701 7.94665 20.972L0.520573 28.3965C0.209288 28.7078 0.209288 29.2121 0.520573 29.5234L6.15521 35.1599ZM31.9385 24.0934C31.9385 23.2132 32.6521 22.4996 33.5323 22.4996C34.4124 22.4996 35.126 23.2132 35.126 24.0934V24.3086C35.126 24.7487 35.4828 25.1055 35.9229 25.1055C36.363 25.1055 36.7198 24.7487 36.7198 24.3086V24.0934C36.7198 23.2132 37.4334 22.4996 38.3136 22.4996C39.1937 22.4996 39.9074 23.2132 39.9074 24.0934C39.4502 25.2918 38.7424 26.3786 37.8307 27.281H34.0151C33.1039 26.3786 32.3957 25.2918 31.9385 24.0934ZM29.5478 28.8747H43.0949V46.4063H29.5478V28.8747ZM23.1727 28.8747H27.954V46.4063H23.1727V28.8747ZM21.5789 28.8747V46.4063H8.03186V34.4529H7.98789L13.6101 28.8315V28.8747H21.5789ZM17.9883 22.2L13.4801 17.6918L17.9883 13.1841L22.4961 17.6918L17.9883 22.2ZM29.2579 1.9144L33.7657 6.42257L23.6229 16.565L19.1151 12.0603L29.2579 1.9144ZM15.1704 6.98561C15.361 6.8323 15.6038 6.75915 15.8478 6.78094C16.7361 6.78094 18.2871 7.36187 20.1342 8.78366L17.4249 11.493L16.9688 11.9494C15.0443 9.45137 14.6603 7.49573 15.1704 6.98561ZM14.9011 11.7669C15.1863 12.2148 15.4988 12.658 15.835 13.0876L13.3797 15.5428C12.9502 15.2066 12.5073 14.8942 12.0603 14.6082L14.9011 11.7669ZM7.28205 14.8751C7.47233 14.7218 7.71435 14.6483 7.95793 14.67C8.84704 14.67 10.3988 15.2502 12.2459 16.6728L11.7898 17.1284L9.0805 19.8381C7.15521 17.3397 6.77194 15.3841 7.28205 14.8751ZM12.3533 18.8187L16.8614 23.3269L6.71863 33.4697L2.21474 28.9615L12.3533 18.8187Z" fill="#FFAE63"/>
<path d="M42.297 10.8306C41.4203 9.83684 40.0203 9.48898 38.7802 9.95707C37.5405 10.4252 36.7195 11.6115 36.7188 12.9368C36.7188 14.6676 40.4818 19.3119 42.297 19.3119C44.1121 19.3119 47.8752 14.6676 47.8752 12.9368C47.8744 11.6115 47.0534 10.4252 45.8137 9.95707C44.5736 9.48898 43.1736 9.83684 42.297 10.8306ZM46.2814 12.9368C46.2639 13.9361 43.1997 17.601 42.3098 17.7182C41.3942 17.6003 38.33 13.9353 38.3125 12.9368C38.3125 12.0567 39.0261 11.3431 39.9063 11.3431C40.7865 11.3431 41.5001 12.0567 41.5001 12.9368V13.152C41.5001 13.5921 41.8569 13.9489 42.297 13.9489C42.737 13.9489 43.0939 13.5921 43.0939 13.152V12.9368C43.0939 12.0567 43.8075 11.3431 44.6876 11.3431C45.5678 11.3431 46.2814 12.0567 46.2814 12.9368Z" fill="#FFAE63"/>
<path d="M42.2969 2.57739C41.8568 2.57739 41.5 2.9342 41.5 3.37428V4.17117H40.7031C40.2631 4.17117 39.9062 4.52798 39.9062 4.96806C39.9062 5.40814 40.2631 5.76495 40.7031 5.76495H41.5V6.56183C41.5 7.00191 41.8568 7.35872 42.2969 7.35872C42.737 7.35872 43.0938 7.00191 43.0938 6.56183V5.76495H43.8907C44.3308 5.76495 44.6876 5.40814 44.6876 4.96806C44.6876 4.52798 44.3308 4.17117 43.8907 4.17117H43.0938V3.37428C43.0938 2.9342 42.737 2.57739 42.2969 2.57739Z" fill="#FFAE63"/>
<path d="M31.9375 15.3276C31.9375 15.7677 31.5807 16.1245 31.1406 16.1245C30.7006 16.1245 30.3438 15.7677 30.3438 15.3276C30.3438 14.8876 30.7006 14.5308 31.1406 14.5308C31.5807 14.5308 31.9375 14.8876 31.9375 15.3276Z" fill="#FFAE63"/>
<path d="M24.7657 25.6871C25.2057 25.6871 25.5625 25.3303 25.5625 24.8902V24.0933H26.3594C26.7995 24.0933 27.1563 23.7365 27.1563 23.2964C27.1563 22.8563 26.7995 22.4995 26.3594 22.4995H25.5625V21.7026C25.5625 21.2626 25.2057 20.9058 24.7657 20.9058C24.3256 20.9058 23.9688 21.2626 23.9688 21.7026V22.4995H23.1719C22.7318 22.4995 22.375 22.8563 22.375 23.2964C22.375 23.7365 22.7318 24.0933 23.1719 24.0933H23.9688V24.8902C23.9688 25.3303 24.3256 25.6871 24.7657 25.6871Z" fill="#FFAE63"/>
<path d="M46.2813 23.2966C46.2813 23.7367 45.9245 24.0935 45.4844 24.0935C45.0443 24.0935 44.6875 23.7367 44.6875 23.2966C44.6875 22.8566 45.0443 22.4998 45.4844 22.4998C45.9245 22.4998 46.2813 22.8566 46.2813 23.2966Z" fill="#FFAE63"/>
</g>
<defs>
<clipPath id="clip0">
<rect width="48" height="48" fill="white"/>
</clipPath>
</defs>
</svg>
