<svg width="52" height="52" viewBox="0 0 52 52" fill="none" xmlns="http://www.w3.org/2000/svg">
<path d="M41.6146 30.1936H10.3841L7.0293 36.9033H10.0639V52.0001H41.9349V36.9033H44.9694L41.6146 30.1936ZM40.5777 31.871L42.2551 35.2259H29.034L27.3565 31.871H40.5777ZM11.4211 31.871H24.6422L22.9648 35.2259H9.74364L11.4211 31.871ZM40.2574 50.3226H26.8381V44.4517H25.1607V50.3226H11.7413V36.9033H24.0017L25.1607 34.585V41.9355H26.8381V34.585L27.997 36.9033H40.2574V50.3226Z" fill="#FFAE63"/>
<path d="M13.4199 43.6128H18.4522V45.2902H13.4199V43.6128Z" fill="#FFAE63"/>
<path d="M13.4199 46.9678H18.4522V48.6452H13.4199V46.9678Z" fill="#FFAE63"/>
<path d="M20.1289 46.9678H21.8063V48.6452H20.1289V46.9678Z" fill="#FFAE63"/>
<path d="M22.1274 13.6408L26.0007 12.6534L29.874 13.64L30.1774 9.48085L32.2349 5.96629L28.5958 4.39126L26.0007 1.18262L23.4047 4.39126L19.7656 5.96629L21.8231 9.48085L22.1274 13.6408ZM24.4498 5.76603L26.0007 3.84945L27.5515 5.76685L29.831 6.75422L28.5336 8.97058L28.3472 11.5211L26.0007 10.9232L23.6541 11.5203L23.4677 8.96976L22.1704 6.75299L24.4498 5.76603Z" fill="#FFAE63"/>
<path d="M9.20961 15.3527L10.4284 13.2719L8.26934 12.3365L6.71028 10.4084L5.15121 12.3357L2.99219 13.271L4.21094 15.3518L4.39113 17.8336L6.71028 17.2438L9.03024 17.8344L9.20961 15.3527ZM7.56578 14.8407L7.50189 15.7139L6.71028 15.5128L5.91948 15.7139L5.85478 14.8407L5.39611 14.0565L6.1955 13.7105L6.71028 13.0753L7.22423 13.7113L8.02363 14.0577L7.56578 14.8407Z" fill="#FFAE63"/>
<path d="M47.7897 15.3527L49.0084 13.2719L46.8494 12.3365L45.2904 10.4084L43.7313 12.3357L41.5723 13.271L42.791 15.3518L42.9712 17.8336L45.2904 17.2438L47.6103 17.8344L47.7897 15.3527ZM46.1459 14.8407L46.082 15.7139L45.2904 15.5128L44.4996 15.7139L44.4357 14.8407L43.977 14.0565L44.7764 13.7105L45.2904 13.0753L45.8043 13.7113L46.6037 14.0577L46.1459 14.8407Z" fill="#FFAE63"/>
<path d="M10.4366 19.9881C12.0338 21.0533 13.4528 22.3531 14.6515 23.8528L17.9736 28.0037L17.2864 22.5083C16.9276 19.6392 15.3952 16.9981 13.0822 15.2638L12.2787 14.6614L9.82031 19.5769L10.4366 19.9881ZM12.8541 17.2623C14.2723 18.6043 15.2342 20.3906 15.5639 22.3232C14.5045 21.0791 13.3025 19.9705 11.9777 19.015L12.8541 17.2623Z" fill="#FFAE63"/>
<path d="M34.7126 22.5084L34.0254 28.0038L37.3475 23.8521C38.547 22.3524 39.9652 21.0525 41.5623 19.9874L42.1778 19.5762L39.7194 14.6606L38.916 15.2647C36.6038 16.999 35.0705 19.6393 34.7126 22.5084ZM40.0213 19.0151C38.6964 19.9706 37.4937 21.0783 36.435 22.3233C36.7655 20.3907 37.7267 18.6044 39.1449 17.2624L40.0213 19.0151Z" fill="#FFAE63"/>
<path d="M29.3555 28.5162H31.0329V25.0021C31.0329 20.9736 32.4527 17.052 35.0327 13.9563L33.7435 12.8826C30.9137 16.2788 29.3555 20.5829 29.3555 25.0021V28.5162Z" fill="#FFAE63"/>
<path d="M35.2266 10.0645H36.904V11.7419H35.2266V10.0645Z" fill="#FFAE63"/>
<path d="M37.7422 6.70972H39.4196V8.38714H37.7422V6.70972Z" fill="#FFAE63"/>
<path d="M20.9678 28.5162H22.6452V25.0021C22.6452 20.5821 21.0869 16.2788 18.2579 12.8826L16.9688 13.9563C19.5479 17.052 20.9678 20.9736 20.9678 25.0021V28.5162Z" fill="#FFAE63"/>
<path d="M15.0977 10.0645H16.7751V11.7419H15.0977V10.0645Z" fill="#FFAE63"/>
<path d="M12.5801 6.70972H14.2575V8.38714H12.5801V6.70972Z" fill="#FFAE63"/>
<path d="M25.1621 14.2581H26.8395V15.9355H25.1621V14.2581Z" fill="#FFAE63"/>
<path d="M25.1621 17.6128H26.8395V28.516H25.1621V17.6128Z" fill="#FFAE63"/>
<path d="M48.6445 22.6453H50.3219V24.3227H48.6445V22.6453Z" fill="#FFAE63"/>
<path d="M48.6445 26H50.3219V27.6774H48.6445V26Z" fill="#FFAE63"/>
<path d="M50.3223 24.3225H51.9997V25.9999H50.3223V24.3225Z" fill="#FFAE63"/>
<path d="M46.9668 24.3225H48.6442V25.9999H46.9668V24.3225Z" fill="#FFAE63"/>
<path d="M46.1289 0H47.8063V1.67742H46.1289V0Z" fill="#FFAE63"/>
<path d="M46.1289 3.35474H47.8063V5.03216H46.1289V3.35474Z" fill="#FFAE63"/>
<path d="M47.8066 1.67749H49.4841V3.35491H47.8066V1.67749Z" fill="#FFAE63"/>
<path d="M44.4512 1.67749H46.1286V3.35491H44.4512V1.67749Z" fill="#FFAE63"/>
<path d="M1.67773 26H3.35515V27.6774H1.67773V26Z" fill="#FFAE63"/>
<path d="M1.67773 29.3547H3.35515V31.0322H1.67773V29.3547Z" fill="#FFAE63"/>
<path d="M3.35547 27.6775H5.03289V29.3549H3.35547V27.6775Z" fill="#FFAE63"/>
<path d="M0 27.6775H1.67742V29.3549H0V27.6775Z" fill="#FFAE63"/>
<path d="M1.67773 0H3.35515V1.67742H1.67773V0Z" fill="#FFAE63"/>
<path d="M1.67773 3.35474H3.35515V5.03216H1.67773V3.35474Z" fill="#FFAE63"/>
<path d="M3.35547 1.67749H5.03289V3.35491H3.35547V1.67749Z" fill="#FFAE63"/>
<path d="M0 1.67749H1.67742V3.35491H0V1.67749Z" fill="#FFAE63"/>
</svg>
