<svg width="52" height="52" viewBox="0 0 52 52" fill="none" xmlns="http://www.w3.org/2000/svg">
<path d="M48.3598 29.1423L47.0132 23.7559C47.3813 23.6777 47.6576 23.3511 47.6576 22.9598V22.0913C47.6576 20.2057 46.1235 18.6717 44.238 18.6717H38.1044V16.8805C38.1044 15.9526 37.3496 15.1978 36.4217 15.1978H25.0169L31.9475 12.4255C32.365 12.2585 32.568 11.7847 32.4011 11.3671C32.2341 10.9497 31.7605 10.7465 31.3427 10.9136L25.668 13.1834C27.3972 12.0739 29.108 10.8528 29.7593 9.99888C31.0273 8.33641 30.7062 5.95233 29.0437 4.68432C27.3813 3.41621 24.9972 3.73746 23.7292 5.39993C22.8027 6.61482 21.5803 10.0284 20.7891 12.4339C19.998 10.0286 18.7756 6.61482 17.8491 5.39993C16.5812 3.73746 14.197 3.41642 12.5345 4.68432C10.8721 5.95223 10.551 8.33631 11.8189 9.99888C12.4703 10.8529 14.181 12.0739 15.9103 13.1834L10.2356 10.9136C9.81784 10.7463 9.34416 10.9496 9.17719 11.3671C9.01012 11.7847 9.21324 12.2585 9.63076 12.4255L16.5614 15.1978H5.15653C4.22866 15.1978 3.47384 15.9526 3.47384 16.8805V31.6446C3.47384 32.0942 3.83835 32.4588 4.28807 32.4588C4.73769 32.4588 5.1023 32.0943 5.1023 31.6446V16.8805C5.1023 16.8505 5.12657 16.8262 5.15653 16.8262H36.4216C36.4516 16.8262 36.4759 16.8505 36.4759 16.8805V31.6448C36.4759 32.0944 36.8404 32.459 37.2901 32.459C37.7397 32.459 38.1043 32.0945 38.1043 31.6448V30.7218H47.7087C47.7096 30.7218 47.7103 30.722 47.7112 30.722C47.7121 30.722 47.7129 30.7219 47.7139 30.7219C48.8956 30.7228 49.8991 31.4985 50.2436 32.5674H47.7118C47.2622 32.5674 46.8976 32.9319 46.8976 33.3816V35.1185C46.8976 36.5253 48.042 37.6697 49.4487 37.6697H50.3715V41.2521H48.2426C47.5432 39.2328 45.6236 37.7782 43.3694 37.7782C41.1152 37.7782 39.1955 39.2327 38.4963 41.2521H38.1042V35.1184C38.1042 34.6688 37.7397 34.3042 37.29 34.3042C36.8404 34.3042 36.4758 34.6687 36.4758 35.1184V41.252H19.583C18.8836 39.2327 16.964 37.7781 14.7098 37.7781C12.4556 37.7781 10.5359 39.2326 9.83663 41.252H5.15653C5.12657 41.252 5.1023 41.2277 5.1023 41.1978V39.4065H8.63048C9.08009 39.4065 9.4447 39.042 9.4447 38.5923C9.4447 38.1426 9.0802 37.7781 8.63048 37.7781H0.814227C0.364609 37.7781 0 38.1426 0 38.5923C0 39.042 0.364508 39.4065 0.814227 39.4065H3.47395V41.1978C3.47395 42.1256 4.22876 42.8805 5.15663 42.8805H9.5547C9.55449 42.8985 9.55327 42.9165 9.55327 42.9347C9.55327 45.7779 11.8666 48.0912 14.7098 48.0912C17.553 48.0912 19.8663 45.7779 19.8663 42.9347C19.8663 42.9164 19.8651 42.8985 19.8649 42.8805H38.2142C38.214 42.8985 38.2128 42.9165 38.2128 42.9347C38.2128 45.7779 40.5261 48.0912 43.3693 48.0912C46.2126 48.0912 48.5259 45.7779 48.5259 42.9347C48.5259 42.9164 48.5246 42.8985 48.5244 42.8805H51.1857C51.6353 42.8805 51.9999 42.5159 51.9999 42.0662V33.3815C52 31.2371 50.418 29.4555 48.3598 29.1423ZM17.5602 12.2952C14.3484 10.2994 13.3958 9.38118 13.1137 9.01129C12.3903 8.0628 12.5735 6.70257 13.5221 5.97914C13.9131 5.68095 14.374 5.53684 14.8316 5.53684C15.4838 5.53684 16.1291 5.82995 16.5544 6.38753C17.342 7.42021 18.5755 10.896 19.3898 13.4006C18.8403 13.077 18.2085 12.6983 17.5602 12.2952ZM22.1887 13.4005C23.003 10.896 24.2365 7.42031 25.024 6.38742C25.7474 5.43893 27.1076 5.25581 28.0561 5.97914C29.0047 6.70257 29.1878 8.0628 28.4645 9.01129C28.1825 9.38108 27.2298 10.2994 24.0183 12.2951C23.37 12.6981 22.7383 13.0769 22.1887 13.4005ZM38.1044 20.3H44.238C45.2257 20.3 46.0292 21.1035 46.0292 22.0912V22.1455H38.1044V20.3ZM38.1044 29.0933V23.7739H45.3392L46.6691 29.0933H38.1044ZM14.7098 46.4629C12.7644 46.4629 11.1816 44.8801 11.1816 42.9347C11.1816 40.9893 12.7644 39.4065 14.7098 39.4065C16.6552 39.4065 18.238 40.9893 18.238 42.9347C18.238 44.8801 16.6552 46.4629 14.7098 46.4629ZM43.3695 46.4629C41.4241 46.4629 39.8413 44.8801 39.8413 42.9347C39.8413 40.9893 41.4241 39.4065 43.3695 39.4065C45.315 39.4065 46.8977 40.9893 46.8977 42.9347C46.8977 44.8801 45.315 46.4629 43.3695 46.4629ZM50.3717 36.0411H49.4489C48.94 36.0411 48.5261 35.6272 48.5261 35.1183V34.1955H50.3715V36.0411H50.3717Z" fill="#FFAE63"/>
<path d="M14.71 41.252C13.7822 41.252 13.0273 42.0068 13.0273 42.9346C13.0273 43.8625 13.7822 44.6173 14.71 44.6173C15.6379 44.6173 16.3927 43.8625 16.3927 42.9346C16.3927 42.0068 15.6379 41.252 14.71 41.252Z" fill="#FFAE63"/>
<path d="M43.3702 41.252C42.4423 41.252 41.6875 42.0068 41.6875 42.9346C41.6875 43.8625 42.4423 44.6173 43.3702 44.6173C44.2981 44.6173 45.0529 43.8625 45.0529 42.9346C45.0529 42.0068 44.2981 41.252 43.3702 41.252Z" fill="#FFAE63"/>
<path d="M33.8166 37.7778H21.658C21.2084 37.7778 20.8438 38.1423 20.8438 38.5921C20.8438 39.0418 21.2083 39.4063 21.658 39.4063H33.8166C34.2662 39.4063 34.6308 39.0418 34.6308 38.5921C34.6308 38.1423 34.2663 37.7778 33.8166 37.7778Z" fill="#FFAE63"/>
<path d="M12.9742 34.3042H2.55251C2.10289 34.3042 1.73828 34.6687 1.73828 35.1184C1.73828 35.5681 2.10279 35.9327 2.55251 35.9327H12.9742C13.4239 35.9327 13.7885 35.5681 13.7885 35.1184C13.7885 34.6687 13.4239 34.3042 12.9742 34.3042Z" fill="#FFAE63"/>
<path d="M12.9718 22.1455H9.49782C9.0482 22.1455 8.68359 22.51 8.68359 22.9597V29.9075C8.68359 30.3572 9.0481 30.7218 9.49782 30.7218C9.94754 30.7218 10.312 30.3573 10.312 29.9075V27.2478H12.1033C12.5529 27.2478 12.9175 26.8833 12.9175 26.4336C12.9175 25.9839 12.553 25.6194 12.1033 25.6194H10.312V23.774H12.9718C13.4214 23.774 13.786 23.4095 13.786 22.9597C13.7859 22.5101 13.4214 22.1455 12.9718 22.1455Z" fill="#FFAE63"/>
<path d="M19.38 27.6296C20.1948 27.0959 20.7345 26.1755 20.7345 25.1309C20.7345 23.4847 19.3953 22.1455 17.7491 22.1455H15.5779C15.1283 22.1455 14.7637 22.51 14.7637 22.9597V29.9075C14.7637 30.3572 15.1282 30.7218 15.5779 30.7218C16.0276 30.7218 16.3921 30.3573 16.3921 29.9075V28.1163H17.7476L19.2428 30.3591C19.3997 30.5944 19.6578 30.7218 19.9209 30.7218C20.0762 30.7218 20.233 30.6775 20.3718 30.5849C20.746 30.3355 20.8471 29.8299 20.5975 29.4559L19.38 27.6296ZM17.7491 26.4879H16.3921V23.774H17.7491C18.4974 23.774 19.1061 24.3826 19.1061 25.1309C19.1061 25.8793 18.4974 26.4879 17.7491 26.4879Z" fill="#FFAE63"/>
<path d="M26.0011 29.0934H23.3413V27.2452C23.3593 27.2464 23.3773 27.2479 23.3956 27.2479H25.1325C25.5821 27.2479 25.9467 26.8834 25.9467 26.4337C25.9467 25.984 25.5822 25.6195 25.1325 25.6195H23.3956C23.3772 25.6195 23.3593 25.621 23.3413 25.6222V23.774H26.0011C26.4507 23.774 26.8153 23.4095 26.8153 22.9597C26.8153 22.5101 26.4508 22.1455 26.0011 22.1455H22.5271C22.0775 22.1455 21.7129 22.51 21.7129 22.9597V29.9075C21.7129 30.3572 22.0774 30.7218 22.5271 30.7218H26.0011C26.4507 30.7218 26.8153 30.3573 26.8153 29.9075C26.8153 29.4578 26.4507 29.0934 26.0011 29.0934Z" fill="#FFAE63"/>
<path d="M32.0792 29.0934H29.4195V27.2479H30.3423C30.7919 27.2479 31.1565 26.8834 31.1565 26.4337C31.1565 25.984 30.792 25.6195 30.3423 25.6195H29.4195V23.774H32.0792C32.5288 23.774 32.8934 23.4095 32.8934 22.9597C32.8934 22.5101 32.5289 22.1455 32.0792 22.1455H28.6052C28.1556 22.1455 27.791 22.51 27.791 22.9597V29.9075C27.791 30.3572 28.1555 30.7218 28.6052 30.7218H32.0792C32.5288 30.7218 32.8934 30.3573 32.8934 29.9075C32.8934 29.4578 32.5288 29.0934 32.0792 29.0934Z" fill="#FFAE63"/>
</svg>
