<svg width="398" height="388" viewBox="0 0 398 388" fill="none" xmlns="http://www.w3.org/2000/svg">
<mask id="mask0" mask-type="alpha" maskUnits="userSpaceOnUse" x="0" y="0" width="398" height="388">
<rect width="398" height="388" fill="#C4C4C4"/>
</mask>
<g mask="url(#mask0)">
<path opacity="0.3" d="M2236.9 -2050.35C2234.87 -2055.48 2229.06 -2057.99 2223.92 -2055.96C2218.79 -2053.92 2216.28 -2048.11 2218.31 -2042.98L2236.9 -2050.35ZM-207.089 694.312C-135.722 339.45 95.4981 104.283 393.032 -77.2861C691.009 -259.125 1053.62 -386.172 1386.88 -525.908C1719.17 -665.231 2022.6 -817.312 2197.37 -1049.44C2373.02 -1282.73 2417.42 -1594.85 2236.9 -2050.35L2218.31 -2042.98C2397.1 -1591.85 2351.64 -1287.59 2181.39 -1061.47C2010.27 -834.179 1711.75 -683.808 1379.15 -544.352C1047.53 -405.307 682.308 -277.246 382.614 -94.3583C82.4765 88.7994 -153.815 327.978 -226.696 690.369L-207.089 694.312ZM-226.696 690.369C-299.699 1053.37 -148.017 1368.87 107.413 1654.84C362.69 1940.64 722.976 2198.51 1070.2 2446.62C1418.05 2695.16 1752.44 2933.68 1958.52 3181.48C2061.44 3305.25 2131.76 3430.64 2156.01 3560.05C2180.21 3689.17 2158.73 3823.19 2076.46 3964.82L2093.76 3974.87C2178.22 3829.46 2200.83 3690.61 2175.67 3556.37C2150.56 3422.41 2078.06 3293.94 1973.9 3168.69C1765.8 2918.47 1428.91 2678.34 1081.83 2430.34C734.129 2181.9 375.837 1925.33 122.329 1641.51C-131.025 1357.87 -278.334 1048.57 -207.089 694.312L-226.696 690.369Z" fill="#FFAE63"/>
<path opacity="0.3" d="M2319.04 -2047.58C2318.53 -2048.87 2317.08 -2049.49 2315.79 -2048.99C2314.51 -2048.48 2313.88 -2047.02 2314.39 -2045.74L2319.04 -2047.58ZM-125.334 692.834C-53.3993 335.148 179.722 98.4766 478.233 -83.6882C776.854 -265.92 1140.44 -393.348 1473.09 -532.824C1805.5 -672.198 2107.08 -823.637 2280.49 -1053.95C2454.11 -1284.55 2498.9 -1593.72 2319.04 -2047.58L2314.39 -2045.74C2493.82 -1592.97 2448.77 -1285.77 2276.49 -1056.96C2104 -827.854 1803.64 -676.842 1471.16 -537.435C1138.92 -398.132 774.678 -270.451 475.628 -87.9563C176.467 94.6057 -57.9227 332.28 -130.236 691.848L-125.334 692.834ZM-130.236 691.848C-202.58 1051.57 -52.5375 1364.74 202.114 1649.84C456.728 1934.9 816.266 2192.28 1163.67 2440.51C1511.23 2688.85 1846.55 2927.98 2053.39 3176.69C2156.78 3301.01 2227.92 3427.55 2252.49 3558.67C2277.05 3689.71 2255.15 3825.54 2172.05 3968.59L2176.38 3971.1C2260.02 3827.11 2282.2 3690.07 2257.4 3557.75C2232.62 3425.5 2160.94 3298.18 2057.24 3173.49C1849.89 2924.17 1513.94 2684.65 1166.58 2436.45C819.054 2188.13 460.014 1931.07 205.843 1646.51C-48.2897 1361.99 -197.238 1050.37 -125.334 692.834L-130.236 691.848Z" fill="#FFAE63"/>
</g>
</svg>
