<svg width="552" height="361" viewBox="0 0 552 361" fill="none" xmlns="http://www.w3.org/2000/svg">
<g opacity="0.15">
<path d="M206.635 615.14C207.164 614.611 209.875 612.43 212.586 610.248C240.685 587.57 265.809 555.768 281.347 523.305C295.628 493.354 302.967 464.131 304.818 429.354L305.215 421.618L348.587 346.378C372.455 305.056 392.091 271.072 392.224 270.94C392.29 270.807 392.819 271.006 393.281 271.469C393.81 271.865 394.67 272.064 395.265 271.865C395.86 271.601 399.034 273.518 403.529 276.956C447.166 309.75 477.117 358.345 489.216 416.065C492.059 429.817 494.505 451.371 493.381 453.156C493.117 453.552 493.117 454.346 493.315 454.941C493.778 456.065 486.043 467.635 477.381 478.809C449.877 514.181 416.356 543.933 378.405 566.611C337.413 591.14 290.603 607.339 243.197 613.355C234.007 614.545 216.354 616 210.933 616C206.503 616 205.842 615.868 206.635 615.14Z" fill="white"/>
<path d="M-24.7727 449.715C-53.9299 446.938 -79.054 440.194 -106.426 427.764C-111.517 425.45 -116.013 423.202 -116.476 422.74C-117.6 421.616 -125.401 404.425 -129.897 393.186C-150.79 340.623 -158.658 281.582 -152.311 224.259C-148.939 193.515 -140.939 161.713 -129.368 132.688C-122.625 115.762 -111.451 93.0845 -110.856 95.068C-110.724 95.5969 -110.129 96.9192 -109.666 97.9771C-109.203 99.1011 -108.145 103.266 -107.418 107.233C-99.6161 148.159 -81.9631 187.234 -57.2357 218.242C-40.905 238.804 -22.8553 255.267 -0.640256 269.945C4.45069 273.317 9.01271 276.689 9.47552 277.482C10.0044 278.276 27.0624 307.83 47.4262 343.202C67.8561 378.508 86.5669 410.905 89.0794 415.202C92.1207 420.558 93.7075 423.93 93.9058 425.781C94.1703 428.955 95.2282 428.227 81.8727 433.847C50.2031 447.269 10.9301 453.087 -24.7727 449.715Z" fill="white"/>
<path d="M506.144 428.823C499.4 385.979 484.193 348.293 460.854 316.161C441.681 289.846 419.532 269.483 389.581 250.706C388.986 250.375 370.804 219.234 349.052 181.614C327.366 143.994 307.862 110.143 305.68 106.374C303.366 102.473 301.911 99.2995 302.242 98.9689C303.234 97.9771 310.506 94.5391 317.515 91.7622C327.102 87.9275 338.936 84.225 347.465 82.3076C349.118 81.977 351.631 81.382 353.085 81.0514C357.317 80.1258 366.507 78.4729 369.482 78.1423C371.003 77.9439 372.986 77.6133 373.912 77.4811C375.499 77.1505 377.548 76.9522 390.11 76.1588C423.763 73.9108 458.805 79.8613 493.053 93.5474C501.582 96.9854 511.566 101.68 513.285 103.068C514.739 104.258 521.152 118.076 526.574 131.564C539.665 164.292 547.4 197.879 550.442 234.772C551.103 242.573 551.235 266.309 550.706 278.805C550.508 282.243 550.376 285.681 550.376 286.408C550.376 287.136 550.045 290.243 549.648 293.351C549.318 296.458 548.921 300.756 548.723 302.937C548.591 305.119 548.326 307.367 548.128 307.896C547.995 308.425 547.665 310.541 547.467 312.524C547.268 314.508 546.938 316.623 546.805 317.152C546.673 317.681 546.343 319.466 546.144 321.119C545.02 330.111 539.995 351.533 535.301 367.07C529.549 386.31 518.045 413.748 509.318 429.484L506.937 433.649L506.144 428.823Z" fill="white"/>
<path d="M-1.03663 253.154C-15.5822 242.708 -33.9625 225.319 -44.8716 211.699C-71.1859 178.641 -88.5083 138.112 -94.7894 94.6738C-95.5828 89.5828 -96.3761 81.9795 -96.5745 77.8142L-96.9712 70.2108L-91.2191 61.9463C-51.0205 4.75586 3.65762 -38.6163 68.2531 -64.4016C79.2945 -68.8314 98.0054 -74.9802 108.848 -77.8232C121.411 -81.0629 141.973 -85.162 149.113 -85.8893C150.766 -86.0216 152.551 -86.286 153.08 -86.4844C153.609 -86.6827 156.055 -86.9472 158.369 -87.1455C160.75 -87.3439 164.915 -87.7406 167.626 -88.0712C170.337 -88.4017 173.51 -88.6662 174.568 -88.6662C178.799 -88.7984 189.775 -88.7323 189.907 -88.6001C189.973 -88.4679 186.337 -85.3604 181.775 -81.5257C138.006 -45.294 106.997 5.68148 96.3525 58.9711C94.6996 67.1034 94.3029 69.4174 93.8401 73.9133C93.6417 75.8968 93.3112 77.6819 93.1789 77.8803C92.8483 78.4753 92.1211 88.6572 91.9227 95.6655C91.8566 98.773 91.526 102.343 91.2616 103.599C90.931 104.856 71.8234 138.641 48.6827 178.641C25.6082 218.641 6.10392 252.493 5.37664 253.815C4.58325 255.204 3.85597 256.328 3.65762 256.328C3.45927 256.262 1.34356 254.873 -1.03663 253.154Z" fill="white"/>
<path d="M107.591 86.274C114.467 17.9099 152.285 -43.9749 212.385 -85.2975L217.873 -89L224.021 -88.9339C238.567 -88.6694 267.922 -84.0413 287.956 -78.8181C339.196 -65.3965 384.684 -41.9253 426.138 -7.54485C436.32 0.918025 460.717 25.2488 469.114 35.4968C482.601 51.8275 497.279 72.5219 496.552 74.307C496.354 74.8359 497.015 76.6211 497.94 78.2079L499.659 81.1831L496.155 79.7285C488.486 76.6211 471.626 71.1334 462.833 68.9516C403.13 53.7449 343.559 60.092 290.6 87.1335L281.675 91.6956H194.335H107.062L107.591 86.274Z" fill="white"/>
</g>
</svg>
