<svg width="56" height="56" viewBox="0 0 56 56" fill="none" xmlns="http://www.w3.org/2000/svg">
<path d="M25.2008 42.0008H30.8008V25.2008H25.2008V42.0008ZM28.0008 14.0008C26.6008 14.0008 25.2008 15.4008 25.2008 16.8008C25.2008 18.2008 26.6008 19.6008 28.0008 19.6008C29.4008 19.6008 30.8008 18.2008 30.8008 16.8008C30.8008 15.4008 29.4008 14.0008 28.0008 14.0008ZM28.0008 2.80078C14.0008 2.80078 2.80078 14.0008 2.80078 28.0008C2.80078 42.0008 14.0008 53.2008 28.0008 53.2008C42.0008 53.2008 53.2008 42.0008 53.2008 28.0008C53.2008 14.0008 42.0008 2.80078 28.0008 2.80078ZM28.0008 47.6008C17.0808 47.6008 8.40078 38.9208 8.40078 28.0008C8.40078 17.0808 17.0808 8.40078 28.0008 8.40078C38.9208 8.40078 47.6008 17.0808 47.6008 28.0008C47.6008 38.9208 38.9208 47.6008 28.0008 47.6008Z" fill="#FFAE63"/>
</svg>
