<svg width="182" height="67" viewBox="0 0 182 67" fill="none" xmlns="http://www.w3.org/2000/svg">
<path d="M8.43186 66.1919C6.92786 66.1919 5.69586 65.8479 4.73586 65.1599C3.79186 64.4559 3.26386 63.5039 3.15186 62.3039H4.87986C4.95986 63.0399 5.30386 63.6399 5.91186 64.1039C6.53586 64.5519 7.36786 64.7759 8.40786 64.7759C9.31986 64.7759 10.0319 64.5599 10.5439 64.1279C11.0719 63.6959 11.3359 63.1599 11.3359 62.5199C11.3359 62.0719 11.1919 61.7039 10.9039 61.4159C10.6159 61.1279 10.2479 60.9039 9.79986 60.7439C9.36786 60.5679 8.77586 60.3839 8.02386 60.1919C7.04786 59.9359 6.25586 59.6799 5.64786 59.4239C5.03986 59.1679 4.51986 58.7919 4.08786 58.2959C3.67186 57.7839 3.46386 57.1039 3.46386 56.2559C3.46386 55.6159 3.65586 55.0239 4.03986 54.4799C4.42386 53.9359 4.96786 53.5039 5.67186 53.1839C6.37586 52.8639 7.17586 52.7039 8.07186 52.7039C9.47986 52.7039 10.6159 53.0639 11.4799 53.7839C12.3439 54.4879 12.8079 55.4639 12.8719 56.7119H11.1919C11.1439 55.9439 10.8399 55.3279 10.2799 54.8639C9.73586 54.3839 8.98386 54.1439 8.02386 54.1439C7.17586 54.1439 6.48786 54.3439 5.95986 54.7439C5.43186 55.1439 5.16786 55.6399 5.16786 56.2319C5.16786 56.7439 5.31986 57.1679 5.62386 57.5039C5.94386 57.8239 6.33586 58.0799 6.79986 58.2719C7.26386 58.4479 7.88786 58.6479 8.67186 58.8719C9.61586 59.1279 10.3679 59.3759 10.9279 59.6159C11.4879 59.8559 11.9679 60.2079 12.3679 60.6719C12.7679 61.1359 12.9759 61.7519 12.9919 62.5199C12.9919 63.2239 12.7999 63.8559 12.4159 64.4159C12.0319 64.9599 11.4959 65.3919 10.8079 65.7119C10.1199 66.0319 9.32786 66.1919 8.43186 66.1919ZM18.5783 54.3119V62.4479C18.5783 63.2479 18.7303 63.7999 19.0343 64.1039C19.3383 64.4079 19.8743 64.5599 20.6423 64.5599H22.1783V65.9999H20.3783C19.1943 65.9999 18.3143 65.7279 17.7383 65.1839C17.1623 64.6239 16.8743 63.7119 16.8743 62.4479V54.3119H15.0503V52.8959H16.8743V49.6079H18.5783V52.8959H22.1783V54.3119H18.5783ZM36.541 52.8959V65.9999H34.861V63.6959C34.477 64.5119 33.885 65.1359 33.085 65.5679C32.285 65.9999 31.389 66.2159 30.397 66.2159C28.829 66.2159 27.549 65.7359 26.557 64.7759C25.565 63.7999 25.069 62.3919 25.069 60.5519V52.8959H26.725V60.3599C26.725 61.7839 27.077 62.8719 27.781 63.6239C28.501 64.3759 29.477 64.7519 30.709 64.7519C31.973 64.7519 32.981 64.3519 33.733 63.5519C34.485 62.7519 34.861 61.5759 34.861 60.0239V52.8959H36.541ZM39.8485 59.4239C39.8485 58.0799 40.1205 56.9039 40.6645 55.8959C41.2085 54.8719 41.9525 54.0879 42.8965 53.5439C43.8565 52.9839 44.9365 52.7039 46.1365 52.7039C47.2885 52.7039 48.3285 52.9839 49.2565 53.5439C50.1845 54.1039 50.8645 54.8319 51.2965 55.7279V48.2399H52.9765V65.9999H51.2965V63.0719C50.8965 63.9839 50.2405 64.7359 49.3285 65.3279C48.4165 65.9039 47.3445 66.1919 46.1125 66.1919C44.9125 66.1919 43.8325 65.9119 42.8725 65.3519C41.9285 64.7919 41.1845 63.9999 40.6405 62.9759C40.1125 61.9519 39.8485 60.7679 39.8485 59.4239ZM51.2965 59.4479C51.2965 58.3919 51.0805 57.4639 50.6485 56.6639C50.2165 55.8639 49.6245 55.2479 48.8725 54.8159C48.1365 54.3839 47.3205 54.1679 46.4245 54.1679C45.4965 54.1679 44.6645 54.3759 43.9285 54.7919C43.1925 55.2079 42.6085 55.8159 42.1765 56.6159C41.7605 57.3999 41.5525 58.3359 41.5525 59.4239C41.5525 60.4959 41.7605 61.4399 42.1765 62.2559C42.6085 63.0559 43.1925 63.6719 43.9285 64.1039C44.6645 64.5199 45.4965 64.7279 46.4245 64.7279C47.3205 64.7279 48.1365 64.5119 48.8725 64.0799C49.6245 63.6479 50.2165 63.0319 50.6485 62.2319C51.0805 61.4319 51.2965 60.5039 51.2965 59.4479ZM57.8918 50.4239C57.5558 50.4239 57.2678 50.3039 57.0278 50.0639C56.7878 49.8239 56.6678 49.5279 56.6678 49.1759C56.6678 48.8239 56.7878 48.5359 57.0278 48.3119C57.2678 48.0719 57.5558 47.9519 57.8918 47.9519C58.2278 47.9519 58.5158 48.0719 58.7558 48.3119C58.9958 48.5359 59.1158 48.8239 59.1158 49.1759C59.1158 49.5279 58.9958 49.8239 58.7558 50.0639C58.5158 50.3039 58.2278 50.4239 57.8918 50.4239ZM58.7318 52.8959V65.9999H57.0518V52.8959H58.7318ZM68.5122 66.1919C67.2802 66.1919 66.1682 65.9199 65.1762 65.3759C64.2002 64.8159 63.4242 64.0319 62.8482 63.0239C62.2882 61.9999 62.0082 60.8079 62.0082 59.4479C62.0082 58.0879 62.2962 56.9039 62.8722 55.8959C63.4482 54.8719 64.2322 54.0879 65.2242 53.5439C66.2162 52.9839 67.3282 52.7039 68.5602 52.7039C69.7922 52.7039 70.9042 52.9839 71.8962 53.5439C72.9042 54.0879 73.6882 54.8719 74.2482 55.8959C74.8242 56.9039 75.1122 58.0879 75.1122 59.4479C75.1122 60.7919 74.8242 61.9759 74.2482 62.9999C73.6722 64.0239 72.8802 64.8159 71.8722 65.3759C70.8642 65.9199 69.7442 66.1919 68.5122 66.1919ZM68.5122 64.7279C69.3762 64.7279 70.1762 64.5359 70.9122 64.1519C71.6482 63.7519 72.2402 63.1599 72.6882 62.3759C73.1522 61.5759 73.3842 60.5999 73.3842 59.4479C73.3842 58.2959 73.1602 57.3279 72.7122 56.5439C72.2642 55.7439 71.6722 55.1519 70.9362 54.7679C70.2002 54.3679 69.4002 54.1679 68.5362 54.1679C67.6722 54.1679 66.8722 54.3679 66.1362 54.7679C65.4002 55.1519 64.8082 55.7439 64.3602 56.5439C63.9282 57.3279 63.7122 58.2959 63.7122 59.4479C63.7122 60.5999 63.9282 61.5759 64.3602 62.3759C64.8082 63.1599 65.3922 63.7519 66.1122 64.1519C66.8482 64.5359 67.6482 64.7279 68.5122 64.7279Z" fill="#585858"/>
<path d="M23.6327 23.6241C25.6167 24.0721 27.1847 25.0641 28.3367 26.6001C29.5207 28.1041 30.1127 29.8321 30.1127 31.7841C30.1127 34.6641 29.1207 36.9201 27.1367 38.5521C25.1527 40.1841 22.3687 41.0001 18.7847 41.0001H2.03271V7.16008H18.2567C21.7127 7.16008 24.4167 7.92808 26.3687 9.46408C28.3527 11.0001 29.3447 13.1601 29.3447 15.9441C29.3447 17.9281 28.8167 19.5921 27.7607 20.9361C26.7367 22.2481 25.3607 23.1441 23.6327 23.6241ZM11.4407 20.6001H16.1927C18.5607 20.6001 19.7447 19.6241 19.7447 17.6721C19.7447 15.6561 18.5607 14.6481 16.1927 14.6481H11.4407V20.6001ZM16.9127 33.4161C19.2807 33.4161 20.4647 32.4241 20.4647 30.4401C20.4647 29.4161 20.1447 28.6321 19.5047 28.0881C18.8967 27.5441 18.0167 27.2721 16.8647 27.2721H11.4407V33.4161H16.9127ZM94.5771 18.2961C94.0331 17.4001 93.2811 16.7121 92.3211 16.2321C91.3931 15.7521 90.2891 15.5121 89.0091 15.5121C86.6411 15.5121 84.7691 16.2801 83.3931 17.8161C82.0491 19.3521 81.3771 21.4161 81.3771 24.0081C81.3771 26.9201 82.0971 29.1441 83.5371 30.6801C85.0091 32.1841 87.1371 32.9361 89.9211 32.9361C93.2171 32.9361 95.5691 31.4481 96.9771 28.4721H87.5211V21.7041H105.089V30.8241C104.353 32.6161 103.265 34.2961 101.825 35.8641C100.417 37.4321 98.6251 38.7281 96.4491 39.7521C94.2731 40.7441 91.7931 41.2401 89.0091 41.2401C85.6171 41.2401 82.6091 40.5201 79.9851 39.0801C77.3931 37.6081 75.3771 35.5761 73.9371 32.9841C72.5291 30.3601 71.8251 27.3681 71.8251 24.0081C71.8251 20.6801 72.5291 17.7201 73.9371 15.1281C75.3771 12.5041 77.3931 10.4721 79.9851 9.03208C82.5771 7.56008 85.5691 6.82408 88.9611 6.82408C93.2171 6.82408 96.7371 7.84808 99.5211 9.89608C102.305 11.9441 104.033 14.7441 104.705 18.2961H94.5771ZM123.177 7.16008C126.729 7.16008 129.833 7.88008 132.489 9.32008C135.177 10.7281 137.241 12.7121 138.681 15.2721C140.121 17.8321 140.841 20.7601 140.841 24.0561C140.841 27.3201 140.105 30.2321 138.633 32.7921C137.193 35.3521 135.129 37.3681 132.441 38.8401C129.785 40.2801 126.697 41.0001 123.177 41.0001H109.785V7.16008H123.177ZM122.457 32.6961C125.209 32.6961 127.369 31.9441 128.937 30.4401C130.505 28.9361 131.289 26.8081 131.289 24.0561C131.289 21.2721 130.505 19.1281 128.937 17.6241C127.369 16.0881 125.209 15.3201 122.457 15.3201H119.193V32.6961H122.457ZM161.786 41.3361C158.618 41.3361 155.706 40.6001 153.05 39.1281C150.394 37.6241 148.282 35.5601 146.714 32.9361C145.178 30.2801 144.41 27.2881 144.41 23.9601C144.41 20.6321 145.178 17.6561 146.714 15.0321C148.282 12.3761 150.394 10.3121 153.05 8.84008C155.706 7.36808 158.618 6.63208 161.786 6.63208C164.986 6.63208 167.898 7.36808 170.522 8.84008C173.178 10.3121 175.274 12.3761 176.81 15.0321C178.346 17.6561 179.114 20.6321 179.114 23.9601C179.114 27.2881 178.346 30.2801 176.81 32.9361C175.274 35.5601 173.178 37.6241 170.522 39.1281C167.866 40.6001 164.954 41.3361 161.786 41.3361ZM161.786 32.6001C164.186 32.6001 166.074 31.8161 167.45 30.2481C168.858 28.6801 169.562 26.5841 169.562 23.9601C169.562 21.2721 168.858 19.1601 167.45 17.6241C166.074 16.0561 164.186 15.2721 161.786 15.2721C159.354 15.2721 157.45 16.0561 156.074 17.6241C154.698 19.1601 154.01 21.2721 154.01 23.9601C154.01 26.6161 154.698 28.7281 156.074 30.2961C157.45 31.8321 159.354 32.6001 161.786 32.6001Z" fill="#FF7D25" fill-opacity="0.91"/>
<path d="M49.2028 41.5374C44.2636 41.1434 39.7984 38.6962 36.8483 34.766C36.5633 34.3848 35.8938 33.4047 35.8938 33.363C35.8938 33.3534 35.9611 33.3726 36.0411 33.4079C36.1212 33.4431 36.2077 33.4655 36.2365 33.4559C36.2622 33.4431 36.4992 33.5072 36.7618 33.5968C37.7965 33.9428 38.6933 34.1318 39.8176 34.2407C40.2661 34.2823 41.4608 34.2983 41.7395 34.2631C41.8452 34.2503 42.0246 34.2311 42.1399 34.2215C42.2552 34.2118 42.3705 34.1958 42.3961 34.1894C42.4218 34.183 42.5115 34.167 42.5915 34.1606C43.5653 34.0485 45.0836 33.5488 46.0797 33.0107L46.4481 32.8121L50.6122 32.8025C52.9024 32.7993 54.8115 32.8025 54.8499 32.8121C54.9204 32.8281 54.9236 32.8409 54.9075 32.9818C54.8947 33.0651 54.8787 33.2125 54.8723 33.3086C54.8627 33.4047 54.8435 33.5584 54.8243 33.6449C54.8082 33.7346 54.7698 33.9364 54.741 34.0933C54.2605 36.7231 52.6397 39.2696 50.3399 41.0121C50.0324 41.2427 49.5487 41.5758 49.5327 41.5694C49.5263 41.5662 49.379 41.5534 49.2028 41.5374Z" fill="#FF7D25" fill-opacity="0.91"/>
<path d="M50.9166 41.5309C50.9422 41.5053 51.0735 41.3996 51.2048 41.2939C52.5662 40.1952 53.7834 38.6545 54.5361 37.0818C55.228 35.6308 55.5835 34.215 55.6732 32.5301L55.6924 32.1554L57.7937 28.5102C58.95 26.5083 59.9013 24.8619 59.9078 24.8555C59.911 24.8491 59.9366 24.8587 59.959 24.8811C59.9846 24.9003 60.0263 24.9099 60.0551 24.9003C60.0839 24.8875 60.2377 24.9804 60.4555 25.1469C62.5696 26.7357 64.0206 29.09 64.6067 31.8863C64.7445 32.5526 64.863 33.5968 64.8085 33.6833C64.7957 33.7025 64.7957 33.7409 64.8053 33.7698C64.8278 33.8242 64.453 34.3848 64.0334 34.9261C62.7009 36.6398 61.0769 38.0812 59.2383 39.1798C57.2524 40.3682 54.9845 41.153 52.6879 41.4444C52.2427 41.5021 51.3874 41.5726 51.1248 41.5726C50.9102 41.5726 50.8781 41.5662 50.9166 41.5309Z" fill="#FF7D25" fill-opacity="0.91"/>
<path d="M39.7056 33.5168C38.293 33.3823 37.0758 33.0556 35.7497 32.4534C35.5031 32.3413 35.2852 32.2323 35.2628 32.2099C35.2084 32.1555 34.8304 31.3227 34.6126 30.7781C33.6004 28.2316 33.2192 25.3713 33.5267 22.5941C33.6901 21.1047 34.0777 19.564 34.6382 18.1578C34.9649 17.3378 35.5063 16.2391 35.5351 16.3352C35.5415 16.3609 35.5703 16.4249 35.5927 16.4762C35.6152 16.5306 35.6664 16.7324 35.7016 16.9246C36.0796 18.9074 36.9348 20.8004 38.1328 22.3027C38.924 23.2988 39.7984 24.0964 40.8747 24.8075C41.1213 24.9709 41.3424 25.1342 41.3648 25.1727C41.3904 25.2111 42.2168 26.6429 43.2034 28.3566C44.1931 30.067 45.0996 31.6366 45.2213 31.8448C45.3687 32.1042 45.4456 32.2676 45.4552 32.3573C45.468 32.511 45.5192 32.4758 44.8722 32.7481C43.3379 33.3983 41.4352 33.6802 39.7056 33.5168Z" fill="#FF7D25" fill-opacity="0.91"/>
<path d="M65.4266 32.5047C65.0999 30.429 64.3632 28.6033 63.2325 27.0465C62.3035 25.7717 61.2305 24.7851 59.7795 23.8754C59.7507 23.8594 58.8698 22.3508 57.816 20.5282C56.7653 18.7056 55.8204 17.0656 55.7147 16.883C55.6026 16.694 55.5321 16.5403 55.5482 16.5243C55.5962 16.4762 55.9486 16.3097 56.2881 16.1751C56.7525 15.9893 57.3259 15.81 57.7391 15.7171C57.8192 15.7011 57.9409 15.6722 58.0114 15.6562C58.2164 15.6114 58.6616 15.5313 58.8057 15.5153C58.8794 15.5057 58.9755 15.4897 59.0203 15.4832C59.0972 15.4672 59.1965 15.4576 59.8051 15.4192C61.4355 15.3103 63.1332 15.5986 64.7924 16.2616C65.2056 16.4282 65.6892 16.6556 65.7725 16.7229C65.843 16.7805 66.1537 17.45 66.4164 18.1034C67.0506 19.689 67.4253 21.3161 67.5727 23.1035C67.6047 23.4815 67.6111 24.6314 67.5855 25.2368C67.5759 25.4033 67.5695 25.5699 67.5695 25.6051C67.5695 25.6404 67.5535 25.7909 67.5342 25.9415C67.5182 26.092 67.499 26.3002 67.4894 26.4059C67.483 26.5116 67.4702 26.6205 67.4606 26.6461C67.4542 26.6718 67.4382 26.7743 67.4285 26.8704C67.4189 26.9665 67.4029 27.069 67.3965 27.0946C67.3901 27.1202 67.3741 27.2067 67.3645 27.2868C67.31 27.7224 67.0666 28.7602 66.8392 29.5129C66.5605 30.4451 66.0032 31.7744 65.5803 32.5367L65.465 32.7385L65.4266 32.5047Z" fill="#FF7D25" fill-opacity="0.91"/>
<path d="M40.8555 23.9938C40.1508 23.4877 39.2603 22.6453 38.7318 21.9855C37.457 20.3839 36.6178 18.4204 36.3135 16.3159C36.275 16.0693 36.2366 15.7009 36.227 15.4991L36.2078 15.1308L36.4864 14.7304C38.4339 11.9597 41.0829 9.85843 44.2124 8.60921C44.7473 8.3946 45.6538 8.09671 46.1791 7.95898C46.7877 7.80203 47.7839 7.60343 48.1298 7.5682C48.2099 7.56179 48.2964 7.54898 48.322 7.53937C48.3476 7.52976 48.4661 7.51695 48.5782 7.50734C48.6936 7.49773 48.8953 7.47851 49.0267 7.4625C49.158 7.44648 49.3118 7.43367 49.363 7.43367C49.568 7.42726 50.0997 7.43046 50.1061 7.43687C50.1093 7.44328 49.9332 7.59382 49.7121 7.7796C47.5917 9.53492 46.0894 12.0045 45.5737 14.5862C45.4936 14.9802 45.4744 15.0923 45.452 15.3101C45.4424 15.4062 45.4264 15.4927 45.42 15.5023C45.4039 15.5312 45.3687 16.0244 45.3591 16.364C45.3559 16.5145 45.3399 16.6875 45.3271 16.7483C45.311 16.8092 44.3853 18.446 43.2643 20.3839C42.1464 22.3218 41.2014 23.9618 41.1662 24.0258C41.1278 24.0931 41.0925 24.1476 41.0829 24.1476C41.0733 24.1444 40.9708 24.0771 40.8555 23.9938Z" fill="#FF7D25" fill-opacity="0.91"/>
<path d="M46.1182 15.9092C46.4513 12.5972 48.2835 9.59905 51.1951 7.5971L51.461 7.41772L51.7589 7.42093C52.4635 7.43374 53.8857 7.65796 54.8563 7.91101C57.3387 8.56124 59.5424 9.69835 61.5508 11.364C62.0441 11.774 63.226 12.9527 63.6328 13.4492C64.2863 14.2404 64.9974 15.243 64.9621 15.3295C64.9525 15.3551 64.9845 15.4416 65.0294 15.5184L65.1127 15.6626L64.9429 15.5921C64.5713 15.4416 63.7545 15.1757 63.3285 15.07C60.4361 14.3333 57.5501 14.6408 54.9844 15.9509L54.552 16.1719H50.3207H46.0925L46.1182 15.9092Z" fill="#FF7D25" fill-opacity="0.91"/>
</svg>
