<svg width="182" height="68" viewBox="0 0 182 68" fill="none" xmlns="http://www.w3.org/2000/svg">
<g opacity="0.3">
<path d="M8.43186 66.6922C6.92786 66.6922 5.69586 66.3481 4.73586 65.6601C3.79186 64.9561 3.26386 64.0041 3.15186 62.8041H4.87986C4.95986 63.5401 5.30386 64.1401 5.91186 64.6041C6.53586 65.0521 7.36786 65.2761 8.40786 65.2761C9.31986 65.2761 10.0319 65.0601 10.5439 64.6281C11.0719 64.1961 11.3359 63.6601 11.3359 63.0201C11.3359 62.5721 11.1919 62.2041 10.9039 61.9161C10.6159 61.6281 10.2479 61.4041 9.79986 61.2441C9.36786 61.0681 8.77586 60.8842 8.02386 60.6922C7.04786 60.4362 6.25586 60.1801 5.64786 59.9241C5.03986 59.6681 4.51986 59.2922 4.08786 58.7962C3.67186 58.2842 3.46386 57.6041 3.46386 56.7561C3.46386 56.1161 3.65586 55.5241 4.03986 54.9801C4.42386 54.4361 4.96786 54.0041 5.67186 53.6841C6.37586 53.3641 7.17586 53.2041 8.07186 53.2041C9.47986 53.2041 10.6159 53.5641 11.4799 54.2841C12.3439 54.9881 12.8079 55.9642 12.8719 57.2122H11.1919C11.1439 56.4442 10.8399 55.8281 10.2799 55.3641C9.73586 54.8841 8.98386 54.6441 8.02386 54.6441C7.17586 54.6441 6.48786 54.8441 5.95986 55.2441C5.43186 55.6441 5.16786 56.1401 5.16786 56.7321C5.16786 57.2441 5.31986 57.6681 5.62386 58.0042C5.94386 58.3242 6.33586 58.5801 6.79986 58.7721C7.26386 58.9481 7.88786 59.1482 8.67186 59.3722C9.61586 59.6281 10.3679 59.8762 10.9279 60.1161C11.4879 60.3561 11.9679 60.7081 12.3679 61.1721C12.7679 61.6361 12.9759 62.2521 12.9919 63.0201C12.9919 63.7241 12.7999 64.3561 12.4159 64.9161C12.0319 65.4601 11.4959 65.8922 10.8079 66.2122C10.1199 66.5322 9.32786 66.6922 8.43186 66.6922ZM18.5783 54.8121V62.9482C18.5783 63.7482 18.7303 64.3001 19.0343 64.6041C19.3383 64.9081 19.8743 65.0602 20.6423 65.0602H22.1783V66.5001H20.3783C19.1943 66.5001 18.3143 66.2281 17.7383 65.6841C17.1623 65.1241 16.8743 64.2122 16.8743 62.9482V54.8121H15.0503V53.3961H16.8743V50.1082H18.5783V53.3961H22.1783V54.8121H18.5783ZM36.541 53.3961V66.5001H34.861V64.1961C34.477 65.0121 33.885 65.6362 33.085 66.0681C32.285 66.5001 31.389 66.7161 30.397 66.7161C28.829 66.7161 27.549 66.2361 26.557 65.2761C25.565 64.3001 25.069 62.8921 25.069 61.0521V53.3961H26.725V60.8601C26.725 62.2841 27.077 63.3721 27.781 64.1241C28.501 64.8762 29.477 65.2521 30.709 65.2521C31.973 65.2521 32.981 64.8521 33.733 64.0521C34.485 63.2521 34.861 62.0761 34.861 60.5241V53.3961H36.541ZM39.8485 59.9241C39.8485 58.5801 40.1205 57.4041 40.6645 56.3961C41.2085 55.3721 41.9525 54.5881 42.8965 54.0441C43.8565 53.4841 44.9365 53.2041 46.1365 53.2041C47.2885 53.2041 48.3285 53.4841 49.2565 54.0441C50.1845 54.6041 50.8645 55.3321 51.2965 56.2281V48.7402H52.9765V66.5001H51.2965V63.5721C50.8965 64.4841 50.2405 65.2361 49.3285 65.8281C48.4165 66.4041 47.3445 66.6922 46.1125 66.6922C44.9125 66.6922 43.8325 66.4121 42.8725 65.8521C41.9285 65.2922 41.1845 64.5002 40.6405 63.4762C40.1125 62.4522 39.8485 61.2681 39.8485 59.9241ZM51.2965 59.9482C51.2965 58.8922 51.0805 57.9642 50.6485 57.1642C50.2165 56.3642 49.6245 55.7482 48.8725 55.3162C48.1365 54.8842 47.3205 54.6681 46.4245 54.6681C45.4965 54.6681 44.6645 54.8761 43.9285 55.2921C43.1925 55.7081 42.6085 56.3161 42.1765 57.1161C41.7605 57.9002 41.5525 58.8361 41.5525 59.9241C41.5525 60.9961 41.7605 61.9401 42.1765 62.7561C42.6085 63.5561 43.1925 64.1721 43.9285 64.6041C44.6645 65.0201 45.4965 65.2281 46.4245 65.2281C47.3205 65.2281 48.1365 65.0121 48.8725 64.5802C49.6245 64.1482 50.2165 63.5321 50.6485 62.7321C51.0805 61.9321 51.2965 61.0042 51.2965 59.9482ZM57.8918 50.9241C57.5558 50.9241 57.2678 50.8041 57.0278 50.5641C56.7878 50.3241 56.6678 50.0281 56.6678 49.6761C56.6678 49.3241 56.7878 49.0361 57.0278 48.8121C57.2678 48.5721 57.5558 48.4521 57.8918 48.4521C58.2278 48.4521 58.5158 48.5721 58.7558 48.8121C58.9958 49.0361 59.1158 49.3241 59.1158 49.6761C59.1158 50.0281 58.9958 50.3241 58.7558 50.5641C58.5158 50.8041 58.2278 50.9241 57.8918 50.9241ZM58.7318 53.3961V66.5001H57.0518V53.3961H58.7318ZM68.5122 66.6922C67.2802 66.6922 66.1682 66.4201 65.1762 65.8761C64.2002 65.3161 63.4242 64.5321 62.8482 63.5241C62.2882 62.5001 62.0082 61.3082 62.0082 59.9482C62.0082 58.5882 62.2962 57.4041 62.8722 56.3961C63.4482 55.3721 64.2322 54.5881 65.2242 54.0441C66.2162 53.4841 67.3282 53.2041 68.5602 53.2041C69.7922 53.2041 70.9042 53.4841 71.8962 54.0441C72.9042 54.5881 73.6882 55.3721 74.2482 56.3961C74.8242 57.4041 75.1122 58.5882 75.1122 59.9482C75.1122 61.2922 74.8242 62.4761 74.2482 63.5001C73.6722 64.5241 72.8802 65.3161 71.8722 65.8761C70.8642 66.4201 69.7442 66.6922 68.5122 66.6922ZM68.5122 65.2281C69.3762 65.2281 70.1762 65.0361 70.9122 64.6521C71.6482 64.2521 72.2402 63.6601 72.6882 62.8761C73.1522 62.0761 73.3842 61.1002 73.3842 59.9482C73.3842 58.7962 73.1602 57.8281 72.7122 57.0441C72.2642 56.2441 71.6722 55.6522 70.9362 55.2682C70.2002 54.8682 69.4002 54.6681 68.5362 54.6681C67.6722 54.6681 66.8722 54.8682 66.1362 55.2682C65.4002 55.6522 64.8082 56.2441 64.3602 57.0441C63.9282 57.8281 63.7122 58.7962 63.7122 59.9482C63.7122 61.1002 63.9282 62.0761 64.3602 62.8761C64.8082 63.6601 65.3922 64.2521 66.1122 64.6521C66.8482 65.0361 67.6482 65.2281 68.5122 65.2281Z" fill="white"/>
<path d="M23.6327 24.1238C25.6167 24.5718 27.1847 25.5638 28.3367 27.0998C29.5207 28.6038 30.1127 30.3318 30.1127 32.2838C30.1127 35.1638 29.1207 37.4198 27.1367 39.0518C25.1527 40.6838 22.3687 41.4998 18.7847 41.4998H2.03271V7.65984H18.2567C21.7127 7.65984 24.4167 8.42784 26.3687 9.96384C28.3527 11.4998 29.3447 13.6598 29.3447 16.4438C29.3447 18.4278 28.8167 20.0918 27.7607 21.4358C26.7367 22.7478 25.3607 23.6438 23.6327 24.1238ZM11.4407 21.0998H16.1927C18.5607 21.0998 19.7447 20.1238 19.7447 18.1718C19.7447 16.1558 18.5607 15.1478 16.1927 15.1478H11.4407V21.0998ZM16.9127 33.9158C19.2807 33.9158 20.4647 32.9238 20.4647 30.9398C20.4647 29.9158 20.1447 29.1318 19.5047 28.5878C18.8967 28.0438 18.0167 27.7718 16.8647 27.7718H11.4407V33.9158H16.9127ZM94.5771 18.7958C94.0331 17.8998 93.2811 17.2118 92.3211 16.7318C91.3931 16.2518 90.2891 16.0118 89.0091 16.0118C86.6411 16.0118 84.7691 16.7798 83.3931 18.3158C82.0491 19.8518 81.3771 21.9158 81.3771 24.5078C81.3771 27.4198 82.0971 29.6438 83.5371 31.1798C85.0091 32.6838 87.1371 33.4358 89.9211 33.4358C93.2171 33.4358 95.5691 31.9478 96.9771 28.9718H87.5211V22.2038H105.089V31.3238C104.353 33.1158 103.265 34.7958 101.825 36.3638C100.417 37.9318 98.6251 39.2278 96.4491 40.2518C94.2731 41.2438 91.7931 41.7398 89.0091 41.7398C85.6171 41.7398 82.6091 41.0198 79.9851 39.5798C77.3931 38.1078 75.3771 36.0758 73.9371 33.4838C72.5291 30.8598 71.8251 27.8678 71.8251 24.5078C71.8251 21.1798 72.5291 18.2198 73.9371 15.6278C75.3771 13.0038 77.3931 10.9718 79.9851 9.53184C82.5771 8.05984 85.5691 7.32384 88.9611 7.32384C93.2171 7.32384 96.7371 8.34784 99.5211 10.3958C102.305 12.4438 104.033 15.2438 104.705 18.7958H94.5771ZM123.177 7.65984C126.729 7.65984 129.833 8.37984 132.489 9.81984C135.177 11.2278 137.241 13.2118 138.681 15.7718C140.121 18.3318 140.841 21.2598 140.841 24.5558C140.841 27.8198 140.105 30.7318 138.633 33.2918C137.193 35.8518 135.129 37.8678 132.441 39.3398C129.785 40.7798 126.697 41.4998 123.177 41.4998H109.785V7.65984H123.177ZM122.457 33.1958C125.209 33.1958 127.369 32.4438 128.937 30.9398C130.505 29.4358 131.289 27.3078 131.289 24.5558C131.289 21.7718 130.505 19.6278 128.937 18.1238C127.369 16.5878 125.209 15.8198 122.457 15.8198H119.193V33.1958H122.457ZM161.786 41.8358C158.618 41.8358 155.706 41.0998 153.05 39.6278C150.394 38.1238 148.282 36.0598 146.714 33.4358C145.178 30.7798 144.41 27.7878 144.41 24.4598C144.41 21.1318 145.178 18.1558 146.714 15.5318C148.282 12.8758 150.394 10.8118 153.05 9.33984C155.706 7.86784 158.618 7.13184 161.786 7.13184C164.986 7.13184 167.898 7.86784 170.522 9.33984C173.178 10.8118 175.274 12.8758 176.81 15.5318C178.346 18.1558 179.114 21.1318 179.114 24.4598C179.114 27.7878 178.346 30.7798 176.81 33.4358C175.274 36.0598 173.178 38.1238 170.522 39.6278C167.866 41.0998 164.954 41.8358 161.786 41.8358ZM161.786 33.0998C164.186 33.0998 166.074 32.3158 167.45 30.7478C168.858 29.1798 169.562 27.0838 169.562 24.4598C169.562 21.7718 168.858 19.6598 167.45 18.1238C166.074 16.5558 164.186 15.7718 161.786 15.7718C159.354 15.7718 157.45 16.5558 156.074 18.1238C154.698 19.6598 154.01 21.7718 154.01 24.4598C154.01 27.1158 154.698 29.2278 156.074 30.7958C157.45 32.3318 159.354 33.0998 161.786 33.0998Z" fill="white"/>
<path d="M49.2025 42.0374C44.2633 41.6434 39.7982 39.1962 36.8481 35.266C36.563 34.8848 35.8936 33.9047 35.8936 33.863C35.8936 33.8534 35.9608 33.8726 36.0409 33.9079C36.121 33.9431 36.2075 33.9655 36.2363 33.9559C36.2619 33.9431 36.4989 34.0072 36.7616 34.0968C37.7962 34.4428 38.6931 34.6318 39.8174 34.7407C40.2658 34.7823 41.4606 34.7983 41.7393 34.7631C41.845 34.7503 42.0243 34.7311 42.1396 34.7215C42.255 34.7118 42.3703 34.6958 42.3959 34.6894C42.4215 34.683 42.5112 34.667 42.5913 34.6606C43.565 34.5485 45.0833 34.0488 46.0795 33.5107L46.4478 33.3121L50.6119 33.3025C52.9021 33.2993 54.8112 33.3025 54.8496 33.3121C54.9201 33.3281 54.9233 33.3409 54.9073 33.4818C54.8945 33.5651 54.8785 33.7125 54.8721 33.8086C54.8625 33.9047 54.8432 34.0584 54.824 34.1449C54.808 34.2346 54.7696 34.4364 54.7407 34.5933C54.2603 37.2231 52.6395 39.7696 50.3396 41.5121C50.0321 41.7427 49.5485 42.0758 49.5325 42.0694C49.5261 42.0662 49.3787 42.0534 49.2025 42.0374Z" fill="white"/>
<path d="M50.9163 42.0309C50.9419 42.0053 51.0733 41.8996 51.2046 41.7939C52.5659 40.6952 53.7831 39.1545 54.5359 37.5818C55.2277 36.1308 55.5833 34.715 55.673 33.0301L55.6922 32.6554L57.7934 29.0102C58.9498 27.0083 59.9011 25.3619 59.9075 25.3555C59.9107 25.3491 59.9363 25.3587 59.9588 25.3811C59.9844 25.4003 60.026 25.4099 60.0549 25.4003C60.0837 25.3875 60.2374 25.4804 60.4552 25.6469C62.5693 27.2357 64.0203 29.59 64.6065 32.3863C64.7442 33.0526 64.8628 34.0968 64.8083 34.1833C64.7955 34.2025 64.7955 34.2409 64.8051 34.2698C64.8275 34.3242 64.4528 34.8848 64.0331 35.4261C62.7006 37.1398 61.0767 38.5812 59.2381 39.6798C57.2521 40.8682 54.9843 41.653 52.6876 41.9444C52.2424 42.0021 51.3872 42.0726 51.1245 42.0726C50.9099 42.0726 50.8779 42.0662 50.9163 42.0309Z" fill="white"/>
<path d="M39.7053 34.0166C38.2927 33.882 37.0755 33.5553 35.7494 32.9531C35.5028 32.841 35.285 32.7321 35.2626 32.7097C35.2081 32.6552 34.8302 31.8224 34.6123 31.2779C33.6002 28.7314 33.219 25.871 33.5265 23.0939C33.6898 21.6044 34.0774 20.0637 34.638 18.6576C34.9647 17.8376 35.506 16.7389 35.5348 16.835C35.5412 16.8606 35.5701 16.9247 35.5925 16.9759C35.6149 17.0304 35.6662 17.2322 35.7014 17.4244C36.0794 19.4071 36.9346 21.3002 38.1326 22.8024C38.9237 23.7986 39.7982 24.5962 40.8744 25.3073C41.1211 25.4706 41.3421 25.634 41.3645 25.6724C41.3902 25.7109 42.2166 27.1427 43.2031 28.8563C44.1929 30.5668 45.0994 32.1363 45.2211 32.3445C45.3684 32.604 45.4453 32.7673 45.4549 32.857C45.4677 33.0108 45.519 32.9755 44.872 33.2478C43.3377 33.898 41.435 34.1799 39.7053 34.0166Z" fill="white"/>
<path d="M65.4266 33.0044C65.0999 30.9288 64.3632 29.103 63.2325 27.5463C62.3035 26.2714 61.2305 25.2849 59.7795 24.3752C59.7507 24.3592 58.8698 22.8505 57.816 21.0279C56.7653 19.2053 55.8204 17.5653 55.7147 17.3828C55.6026 17.1938 55.5321 17.04 55.5482 17.024C55.5962 16.976 55.9486 16.8094 56.2881 16.6749C56.7525 16.4891 57.3259 16.3097 57.7391 16.2168C57.8192 16.2008 57.9409 16.172 58.0114 16.156C58.2164 16.1111 58.6616 16.031 58.8057 16.015C58.8794 16.0054 58.9755 15.9894 59.0203 15.983C59.0972 15.967 59.1965 15.9574 59.8051 15.9189C61.4355 15.81 63.1332 16.0983 64.7924 16.7614C65.2056 16.9279 65.6892 17.1553 65.7725 17.2226C65.843 17.2803 66.1537 17.9497 66.4164 18.6032C67.0506 20.1887 67.4253 21.8159 67.5727 23.6032C67.6047 23.9812 67.6111 25.1311 67.5855 25.7365C67.5759 25.9031 67.5695 26.0697 67.5695 26.1049C67.5695 26.1401 67.5535 26.2907 67.5342 26.4412C67.5182 26.5918 67.499 26.8 67.4894 26.9057C67.483 27.0114 67.4702 27.1203 67.4606 27.1459C67.4542 27.1715 67.4382 27.274 67.4285 27.3701C67.4189 27.4662 67.4029 27.5687 67.3965 27.5943C67.3901 27.62 67.3741 27.7064 67.3645 27.7865C67.31 28.2222 67.0666 29.26 66.8392 30.0127C66.5605 30.9448 66.0032 32.2741 65.5803 33.0365L65.465 33.2383L65.4266 33.0044Z" fill="white"/>
<path d="M40.8553 24.4938C40.1506 23.9877 39.2601 23.1453 38.7316 22.4855C37.4567 20.8839 36.6175 18.9204 36.3132 16.8159C36.2748 16.5693 36.2363 16.2009 36.2267 15.9991L36.2075 15.6308L36.4862 15.2304C38.4337 12.4597 41.0827 10.3584 44.2121 9.10921C44.7471 8.8946 45.6535 8.59671 46.1789 8.45898C46.7874 8.30203 47.7836 8.10343 48.1296 8.0682C48.2096 8.06179 48.2961 8.04898 48.3217 8.03937C48.3474 8.02976 48.4659 8.01695 48.578 8.00734C48.6933 7.99773 48.8951 7.97851 49.0264 7.9625C49.1578 7.94648 49.3115 7.93367 49.3628 7.93367C49.5678 7.92726 50.0995 7.93046 50.1059 7.93687C50.1091 7.94328 49.9329 8.09382 49.7119 8.2796C47.5914 10.0349 46.0892 12.5045 45.5735 15.0862C45.4934 15.4802 45.4742 15.5923 45.4517 15.8101C45.4421 15.9062 45.4261 15.9927 45.4197 16.0023C45.4037 16.0312 45.3685 16.5244 45.3589 16.864C45.3556 17.0145 45.3396 17.1875 45.3268 17.2483C45.3108 17.3092 44.3851 18.946 43.264 20.8839C42.1461 22.8218 41.2012 24.4618 41.166 24.5258C41.1275 24.5931 41.0923 24.6476 41.0827 24.6476C41.0731 24.6444 40.9706 24.5771 40.8553 24.4938Z" fill="white"/>
<path d="M46.1179 16.409C46.451 13.0969 48.2832 10.0988 51.1949 8.09686L51.4607 7.91748L51.7586 7.92068C52.4633 7.9335 53.8855 8.15772 54.856 8.41076C57.3384 9.061 59.5422 10.1981 61.5506 11.8637C62.0438 12.2737 63.2258 13.4525 63.6326 13.949C64.286 14.7401 64.9971 15.7427 64.9619 15.8292C64.9523 15.8548 64.9843 15.9413 65.0291 16.0182L65.1124 16.1623L64.9427 16.0919C64.5711 15.9413 63.7543 15.6755 63.3283 15.5698C60.4359 14.833 57.5499 15.1405 54.9842 16.4506L54.5517 16.6716H50.3204H46.0923L46.1179 16.409Z" fill="white"/>
</g>
</svg>
