<svg width="28" height="28" viewBox="0 0 28 28" fill="none" xmlns="http://www.w3.org/2000/svg">
<path d="M12.9871 27.2976C9.13211 26.9901 5.64711 25.0801 3.34461 22.0126C3.12211 21.7151 2.59961 20.9501 2.59961 20.9176C2.59961 20.9101 2.65211 20.9251 2.71461 20.9526C2.77711 20.9801 2.84461 20.9976 2.86711 20.9901C2.88711 20.9801 3.07211 21.0301 3.27711 21.1001C4.08461 21.3701 4.78461 21.5176 5.66211 21.6026C6.01211 21.6351 6.94461 21.6476 7.16211 21.6201C7.24461 21.6101 7.38461 21.5951 7.47461 21.5876C7.56461 21.5801 7.65461 21.5676 7.67461 21.5626C7.69461 21.5576 7.76461 21.5451 7.82711 21.5401C8.58711 21.4526 9.77211 21.0626 10.5496 20.6426L10.8371 20.4876L14.0871 20.4801C15.8746 20.4776 17.3646 20.4801 17.3946 20.4876C17.4496 20.5001 17.4521 20.5101 17.4396 20.6201C17.4296 20.6851 17.4171 20.8001 17.4121 20.8751C17.4046 20.9501 17.3896 21.0701 17.3746 21.1376C17.3621 21.2076 17.3321 21.3651 17.3096 21.4876C16.9346 23.5401 15.6696 25.5276 13.8746 26.8876C13.6346 27.0676 13.2571 27.3276 13.2446 27.3226C13.2396 27.3201 13.1246 27.3101 12.9871 27.2976Z" fill="white"/>
<path d="M14.3249 27.2925C14.3449 27.2725 14.4474 27.19 14.5499 27.1075C15.6124 26.25 16.5624 25.0475 17.1499 23.82C17.6899 22.6875 17.9674 21.5825 18.0374 20.2675L18.0524 19.975L19.6924 17.13C20.5949 15.5675 21.3374 14.2825 21.3424 14.2775C21.3449 14.2725 21.3649 14.28 21.3824 14.2975C21.4024 14.3125 21.4349 14.32 21.4574 14.3125C21.4799 14.3025 21.5999 14.375 21.7699 14.505C23.4199 15.745 24.5524 17.5825 25.0099 19.765C25.1174 20.285 25.2099 21.1 25.1674 21.1675C25.1574 21.1825 25.1574 21.2125 25.1649 21.235C25.1824 21.2775 24.8899 21.715 24.5624 22.1375C23.5224 23.475 22.2549 24.6 20.8199 25.4575C19.2699 26.385 17.4999 26.9975 15.7074 27.225C15.3599 27.27 14.6924 27.325 14.4874 27.325C14.3199 27.325 14.2949 27.32 14.3249 27.2925Z" fill="white"/>
<path d="M5.57477 21.0375C4.47227 20.9325 3.52227 20.6775 2.48727 20.2075C2.29477 20.12 2.12477 20.035 2.10727 20.0175C2.06477 19.975 1.76977 19.325 1.59977 18.9C0.809767 16.9125 0.512267 14.68 0.752267 12.5125C0.879767 11.35 1.18227 10.1475 1.61977 9.05003C1.87477 8.41003 2.29727 7.55253 2.31977 7.62753C2.32477 7.64753 2.34727 7.69753 2.36477 7.73753C2.38227 7.78003 2.42227 7.93753 2.44977 8.08753C2.74477 9.63503 3.41227 11.1125 4.34727 12.285C4.96477 13.0625 5.64727 13.685 6.48727 14.24C6.67977 14.3675 6.85227 14.495 6.86977 14.525C6.88977 14.555 7.53477 15.6725 8.30477 17.01C9.07727 18.345 9.78477 19.57 9.87977 19.7325C9.99477 19.935 10.0548 20.0625 10.0623 20.1325C10.0723 20.2525 10.1123 20.225 9.60727 20.4375C8.40977 20.945 6.92477 21.165 5.57477 21.0375Z" fill="white"/>
<path d="M25.6497 20.2474C25.3947 18.6274 24.8197 17.2024 23.9372 15.9874C23.2122 14.9924 22.3747 14.2224 21.2423 13.5124C21.2198 13.4999 20.5323 12.3224 19.7098 10.8999C18.8898 9.47743 18.1523 8.19742 18.0698 8.05492C17.9823 7.90742 17.9273 7.78742 17.9398 7.77492C17.9773 7.73742 18.2523 7.60742 18.5173 7.50242C18.8798 7.35742 19.3273 7.21742 19.6498 7.14492C19.7123 7.13242 19.8073 7.10992 19.8623 7.09742C20.0223 7.06242 20.3698 6.99992 20.4823 6.98742C20.5398 6.97992 20.6148 6.96742 20.6498 6.96242C20.7098 6.94992 20.7873 6.94242 21.2623 6.91242C22.5347 6.82742 23.8597 7.05242 25.1547 7.56992C25.4772 7.69992 25.8547 7.87742 25.9197 7.92992C25.9747 7.97492 26.2172 8.49742 26.4222 9.00742C26.9172 10.2449 27.2097 11.5149 27.3247 12.9099C27.3497 13.2049 27.3547 14.1024 27.3347 14.5749C27.3272 14.7049 27.3222 14.8349 27.3222 14.8624C27.3222 14.8899 27.3097 15.0074 27.2947 15.1249C27.2822 15.2424 27.2672 15.4049 27.2597 15.4874C27.2547 15.5699 27.2447 15.6549 27.2372 15.6749C27.2322 15.6949 27.2197 15.7749 27.2122 15.8499C27.2047 15.9249 27.1922 16.0049 27.1872 16.0249C27.1822 16.0449 27.1697 16.1124 27.1622 16.1749C27.1197 16.5149 26.9297 17.3249 26.7522 17.9124C26.5347 18.6399 26.0997 19.6774 25.7697 20.2724L25.6797 20.4299L25.6497 20.2474Z" fill="white"/>
<path d="M6.47223 13.605C5.92223 13.21 5.22723 12.5525 4.81473 12.0375C3.81973 10.7875 3.16473 9.25497 2.92723 7.61247C2.89723 7.41997 2.86723 7.13247 2.85973 6.97497L2.84473 6.68747L3.06223 6.37497C4.58223 4.21247 6.64973 2.57247 9.09223 1.59747C9.50973 1.42997 10.2172 1.19747 10.6272 1.08997C11.1022 0.967471 11.8797 0.812471 12.1497 0.784971C12.2122 0.779971 12.2797 0.769971 12.2997 0.762471C12.3197 0.754971 12.4122 0.744971 12.4997 0.737471C12.5897 0.729971 12.7472 0.714971 12.8497 0.702472C12.9522 0.689972 13.0722 0.679972 13.1122 0.679972C13.2722 0.674972 13.6872 0.677472 13.6922 0.682472C13.6947 0.687472 13.5572 0.804971 13.3847 0.949971C11.7297 2.31997 10.5572 4.24747 10.1547 6.26247C10.0922 6.56997 10.0772 6.65747 10.0597 6.82747C10.0522 6.90247 10.0397 6.96997 10.0347 6.97747C10.0222 6.99997 9.99473 7.38497 9.98723 7.64997C9.98473 7.76747 9.97223 7.90247 9.96223 7.94997C9.94973 7.99747 9.22723 9.27497 8.35223 10.7875C7.47973 12.3 6.74223 13.58 6.71473 13.63C6.68473 13.6825 6.65723 13.725 6.64973 13.725C6.64223 13.7225 6.56223 13.67 6.47223 13.605Z" fill="white"/>
<path d="M10.5796 7.29499C10.8396 4.70998 12.2696 2.36998 14.5421 0.807481L14.7496 0.66748L14.9821 0.66998C15.5321 0.67998 16.6421 0.854981 17.3996 1.05248C19.3371 1.55998 21.0571 2.44748 22.6246 3.74748C23.0096 4.06748 23.9321 4.98748 24.2496 5.37498C24.7596 5.99249 25.3146 6.77499 25.2871 6.84249C25.2796 6.86249 25.3046 6.92999 25.3396 6.98999L25.4046 7.10249L25.2721 7.04749C24.9821 6.92999 24.3446 6.72249 24.0121 6.63999C21.7546 6.06498 19.5021 6.30499 17.4996 7.32749L17.1621 7.49999H13.8596H10.5596L10.5796 7.29499Z" fill="white"/>
</svg>
