<svg width="28" height="28" viewBox="0 0 28 28" fill="none" xmlns="http://www.w3.org/2000/svg">
<path d="M12.9881 27.2976C9.13308 26.9901 5.64809 25.0801 3.34559 22.0126C3.12309 21.7151 2.60059 20.9501 2.60059 20.9176C2.60059 20.9101 2.65309 20.9251 2.71559 20.9526C2.77809 20.9801 2.84559 20.9976 2.86809 20.9901C2.88809 20.9801 3.07309 21.0301 3.27809 21.1001C4.08559 21.3701 4.78559 21.5176 5.66309 21.6026C6.01308 21.6351 6.94558 21.6476 7.16308 21.6201C7.24558 21.6101 7.38558 21.5951 7.47558 21.5876C7.56558 21.5801 7.65558 21.5676 7.67558 21.5626C7.69558 21.5576 7.76558 21.5451 7.82808 21.5401C8.58808 21.4526 9.77308 21.0626 10.5506 20.6426L10.8381 20.4876L14.0881 20.4801C15.8756 20.4776 17.3656 20.4801 17.3956 20.4876C17.4506 20.5001 17.4531 20.5101 17.4406 20.6201C17.4306 20.6851 17.4181 20.8001 17.4131 20.8751C17.4056 20.9501 17.3906 21.0701 17.3756 21.1376C17.3631 21.2076 17.3331 21.3651 17.3106 21.4876C16.9356 23.5401 15.6706 25.5276 13.8756 26.8876C13.6356 27.0676 13.2581 27.3276 13.2456 27.3226C13.2406 27.3201 13.1256 27.3101 12.9881 27.2976Z" fill="#828282"/>
<path d="M14.3254 27.2925C14.3454 27.2725 14.4479 27.19 14.5504 27.1075C15.6129 26.25 16.5629 25.0475 17.1504 23.82C17.6904 22.6875 17.9679 21.5825 18.0379 20.2675L18.0529 19.975L19.6929 17.13C20.5954 15.5675 21.3379 14.2825 21.3429 14.2775C21.3454 14.2725 21.3654 14.28 21.3829 14.2975C21.4029 14.3125 21.4354 14.32 21.4579 14.3125C21.4804 14.3025 21.6004 14.375 21.7704 14.505C23.4204 15.745 24.5529 17.5825 25.0104 19.765C25.1179 20.285 25.2104 21.1 25.1679 21.1675C25.1579 21.1825 25.1579 21.2125 25.1654 21.235C25.1829 21.2775 24.8904 21.715 24.5629 22.1375C23.5229 23.475 22.2554 24.6 20.8204 25.4575C19.2704 26.385 17.5004 26.9975 15.7079 27.225C15.3604 27.27 14.6929 27.325 14.4879 27.325C14.3204 27.325 14.2954 27.32 14.3254 27.2925Z" fill="#828282"/>
<path d="M5.57526 21.0375C4.47276 20.9325 3.52276 20.6775 2.48776 20.2075C2.29526 20.12 2.12526 20.035 2.10776 20.0175C2.06526 19.975 1.77026 19.325 1.60026 18.9C0.810255 16.9125 0.512755 14.68 0.752755 12.5125C0.880255 11.35 1.18276 10.1475 1.62026 9.05003C1.87526 8.41003 2.29776 7.55253 2.32026 7.62753C2.32526 7.64753 2.34776 7.69753 2.36526 7.73753C2.38276 7.78003 2.42276 7.93753 2.45026 8.08753C2.74526 9.63503 3.41276 11.1125 4.34776 12.285C4.96526 13.0625 5.64776 13.685 6.48776 14.24C6.68026 14.3675 6.85276 14.495 6.87026 14.525C6.89026 14.555 7.53526 15.6725 8.30526 17.01C9.07776 18.345 9.78526 19.57 9.88026 19.7325C9.99526 19.935 10.0553 20.0625 10.0628 20.1325C10.0728 20.2525 10.1128 20.225 9.60776 20.4375C8.41026 20.945 6.92526 21.165 5.57526 21.0375Z" fill="#828282"/>
<path d="M25.6502 20.2474C25.3952 18.6274 24.8202 17.2024 23.9377 15.9874C23.2127 14.9924 22.3752 14.2224 21.2427 13.5124C21.2202 13.4999 20.5327 12.3224 19.7102 10.8999C18.8902 9.47743 18.1527 8.19742 18.0702 8.05492C17.9827 7.90742 17.9277 7.78742 17.9402 7.77492C17.9777 7.73742 18.2527 7.60742 18.5177 7.50242C18.8802 7.35742 19.3277 7.21742 19.6502 7.14492C19.7127 7.13242 19.8077 7.10992 19.8627 7.09742C20.0227 7.06242 20.3702 6.99992 20.4827 6.98742C20.5402 6.97992 20.6152 6.96742 20.6502 6.96242C20.7102 6.94992 20.7877 6.94242 21.2627 6.91242C22.5352 6.82742 23.8602 7.05242 25.1552 7.56992C25.4777 7.69992 25.8552 7.87742 25.9202 7.92992C25.9752 7.97492 26.2177 8.49742 26.4227 9.00742C26.9177 10.2449 27.2102 11.5149 27.3252 12.9099C27.3502 13.2049 27.3552 14.1024 27.3352 14.5749C27.3277 14.7049 27.3227 14.8349 27.3227 14.8624C27.3227 14.8899 27.3102 15.0074 27.2952 15.1249C27.2827 15.2424 27.2677 15.4049 27.2602 15.4874C27.2552 15.5699 27.2452 15.6549 27.2377 15.6749C27.2327 15.6949 27.2202 15.7749 27.2127 15.8499C27.2052 15.9249 27.1927 16.0049 27.1877 16.0249C27.1827 16.0449 27.1702 16.1124 27.1627 16.1749C27.1202 16.5149 26.9302 17.3249 26.7527 17.9124C26.5352 18.6399 26.1002 19.6774 25.7702 20.2724L25.6802 20.4299L25.6502 20.2474Z" fill="#828282"/>
<path d="M6.4732 13.605C5.9232 13.21 5.2282 12.5525 4.8157 12.0375C3.8207 10.7875 3.1657 9.25497 2.9282 7.61247C2.8982 7.41997 2.8682 7.13247 2.8607 6.97497L2.8457 6.68747L3.0632 6.37497C4.5832 4.21247 6.65071 2.57247 9.09321 1.59747C9.51071 1.42997 10.2182 1.19747 10.6282 1.08997C11.1032 0.967471 11.8807 0.812471 12.1507 0.784971C12.2132 0.779971 12.2807 0.769971 12.3007 0.762471C12.3207 0.754971 12.4132 0.744971 12.5007 0.737471C12.5907 0.729971 12.7482 0.714971 12.8507 0.702472C12.9532 0.689972 13.0732 0.679972 13.1132 0.679972C13.2732 0.674972 13.6882 0.677472 13.6932 0.682472C13.6957 0.687472 13.5582 0.804971 13.3857 0.949971C11.7307 2.31997 10.5582 4.24747 10.1557 6.26247C10.0932 6.56997 10.0782 6.65747 10.0607 6.82747C10.0532 6.90247 10.0407 6.96997 10.0357 6.97747C10.0232 6.99997 9.99571 7.38497 9.98821 7.64997C9.98571 7.76747 9.97321 7.90247 9.96321 7.94997C9.95071 7.99747 9.22821 9.27497 8.35321 10.7875C7.48071 12.3 6.7432 13.58 6.7157 13.63C6.6857 13.6825 6.65821 13.725 6.65071 13.725C6.6432 13.7225 6.56321 13.67 6.4732 13.605Z" fill="#828282"/>
<path d="M10.5805 7.29499C10.8405 4.70998 12.2705 2.36998 14.543 0.807481L14.7505 0.66748L14.983 0.66998C15.533 0.67998 16.643 0.854981 17.4005 1.05248C19.338 1.55998 21.058 2.44748 22.6255 3.74748C23.0105 4.06748 23.933 4.98748 24.2505 5.37498C24.7605 5.99249 25.3155 6.77499 25.288 6.84249C25.2805 6.86249 25.3055 6.92999 25.3405 6.98999L25.4055 7.10249L25.273 7.04749C24.983 6.92999 24.3455 6.72249 24.013 6.63999C21.7555 6.06498 19.503 6.30499 17.5005 7.32749L17.163 7.49999H13.8605H10.5605L10.5805 7.29499Z" fill="#828282"/>
</svg>
