<svg width="353" height="463" viewBox="0 0 353 463" fill="none" xmlns="http://www.w3.org/2000/svg">
<g opacity="0.05">
<path d="M70.6609 492.048C-4.873 486.022 -73.1572 448.598 -118.272 388.495C-122.631 382.665 -132.869 367.676 -132.869 367.039C-132.869 366.892 -131.84 367.186 -130.616 367.725C-129.391 368.264 -128.069 368.607 -127.628 368.46C-127.236 368.264 -123.611 369.244 -119.594 370.615C-103.772 375.906 -90.0568 378.796 -72.8633 380.461C-66.0055 381.098 -47.7343 381.343 -43.4727 380.804C-41.8562 380.608 -39.1131 380.314 -37.3496 380.167C-35.5862 380.02 -33.8228 379.775 -33.4309 379.677C-33.039 379.579 -31.6674 379.334 -30.4428 379.236C-15.5516 377.522 7.667 369.88 22.9011 361.651L28.5343 358.614L92.214 358.467C127.238 358.418 156.433 358.467 157.02 358.614C158.098 358.859 158.147 359.055 157.902 361.21C157.706 362.484 157.461 364.737 157.363 366.207C157.216 367.676 156.922 370.027 156.628 371.35C156.384 372.722 155.796 375.808 155.355 378.208C148.007 418.424 123.221 457.367 88.0503 484.014C83.3478 487.541 75.9512 492.635 75.7063 492.537C75.6083 492.488 73.355 492.292 70.6609 492.048Z" fill="white"/>
<path d="M96.867 491.949C97.2589 491.557 99.2673 489.94 101.276 488.324C122.094 471.522 140.708 447.961 152.219 423.909C162.8 401.719 168.237 380.068 169.609 354.303L169.903 348.571L202.037 292.827C219.72 262.212 234.268 237.034 234.366 236.936C234.415 236.838 234.807 236.985 235.15 237.328C235.542 237.622 236.179 237.769 236.62 237.622C237.061 237.426 239.412 238.846 242.743 241.394C275.073 265.69 297.262 301.693 306.227 344.457C308.333 354.645 310.145 370.614 309.313 371.937C309.117 372.231 309.117 372.819 309.264 373.26C309.607 374.092 303.875 382.665 297.458 390.943C277.081 417.15 252.246 439.193 224.129 455.994C193.758 474.167 159.077 486.169 123.955 490.626C117.147 491.508 104.068 492.585 100.051 492.585C96.7691 492.585 96.2792 492.488 96.867 491.949Z" fill="white"/>
<path d="M-74.5777 369.391C-96.1798 367.334 -114.794 362.337 -135.073 353.128C-138.845 351.414 -142.176 349.748 -142.519 349.406C-143.352 348.573 -149.132 335.837 -152.463 327.51C-167.942 288.567 -173.771 244.824 -169.069 202.354C-166.57 179.577 -160.643 156.015 -152.071 134.511C-147.075 121.971 -138.796 105.169 -138.355 106.639C-138.257 107.031 -137.817 108.011 -137.474 108.794C-137.131 109.627 -136.347 112.713 -135.808 115.652C-130.028 145.973 -116.949 174.923 -98.629 197.897C-86.5299 213.131 -73.1572 225.328 -56.6984 236.203C-52.9266 238.701 -49.5467 241.199 -49.2038 241.787C-48.8119 242.375 -36.1739 264.271 -21.0868 290.477C-5.95058 316.635 7.912 340.637 9.7734 343.821C12.0267 347.789 13.2023 350.287 13.3493 351.659C13.5452 354.01 14.329 353.471 4.43411 357.635C-19.0294 367.579 -48.1261 371.889 -74.5777 369.391Z" fill="white"/>
<path d="M318.766 353.913C313.77 322.171 302.503 294.25 285.212 270.443C271.007 250.947 254.597 235.86 232.407 221.949C231.966 221.704 218.495 198.632 202.38 170.76C186.313 142.888 171.862 117.808 170.246 115.016C168.531 112.126 167.454 109.774 167.699 109.529C168.433 108.795 173.822 106.247 179.014 104.19C186.117 101.349 194.885 98.6059 201.204 97.1853C202.429 96.9404 204.29 96.4995 205.368 96.2546C208.503 95.5688 215.311 94.3442 217.516 94.0993C218.642 93.9523 220.112 93.7074 220.798 93.6094C221.973 93.3645 223.492 93.2176 232.799 92.6298C257.732 90.9643 283.694 95.3729 309.067 105.513C315.386 108.06 322.783 111.538 324.057 112.566C325.134 113.448 329.886 123.686 333.902 133.679C343.601 157.926 349.332 182.81 351.586 210.143C352.076 215.924 352.174 233.509 351.782 242.767C351.635 245.314 351.537 247.861 351.537 248.4C351.537 248.939 351.292 251.241 350.998 253.544C350.753 255.846 350.459 259.03 350.312 260.646C350.214 262.263 350.018 263.928 349.871 264.32C349.773 264.712 349.528 266.28 349.381 267.749C349.235 269.219 348.99 270.786 348.892 271.178C348.794 271.57 348.549 272.892 348.402 274.117C347.569 280.779 343.846 296.65 340.368 308.161C336.107 322.416 327.583 342.744 321.118 354.402L319.354 357.489L318.766 353.913Z" fill="white"/>
<path d="M-56.992 223.759C-67.7686 216.019 -81.3862 203.137 -89.4687 193.046C-108.964 168.554 -121.798 138.526 -126.452 106.344C-127.04 102.572 -127.627 96.9385 -127.774 93.8525L-128.068 88.2193L-123.807 82.0963C-94.0242 39.7248 -53.5141 7.59109 -5.65635 -11.5128C2.52404 -14.7948 16.3866 -19.3503 24.4201 -21.4566C33.7271 -23.8569 48.9613 -26.8939 54.2516 -27.4327C55.4762 -27.5307 56.7988 -27.7266 57.1906 -27.8736C57.5825 -28.0205 59.3949 -28.2165 61.1094 -28.3634C62.8728 -28.5104 65.9588 -28.8043 67.9672 -29.0492C69.9756 -29.2941 72.3268 -29.4901 73.1106 -29.4901C76.2456 -29.588 84.377 -29.539 84.4749 -29.4411C84.5239 -29.3431 81.8298 -27.0408 78.4499 -24.1997C46.0222 2.64367 23.0485 40.4106 15.162 79.892C13.9374 85.9171 13.6435 87.6315 13.3006 90.9624C13.1537 92.432 12.9087 93.7545 12.8108 93.9015C12.5658 94.3424 12.027 101.886 11.8801 107.078C11.8311 109.381 11.5862 112.026 11.3902 112.956C11.1453 113.887 -3.01119 138.918 -20.1557 168.554C-37.2513 198.189 -51.7017 223.269 -52.2405 224.249C-52.8283 225.278 -53.3672 226.11 -53.5141 226.11C-53.6611 226.061 -55.2286 225.033 -56.992 223.759Z" fill="white"/>
<path d="M23.4886 100.124C28.5829 49.4739 56.602 3.6245 101.129 -26.9908L105.194 -29.7339L109.75 -29.6849C120.527 -29.489 142.276 -26.0601 157.118 -22.1903C195.081 -12.2465 228.782 5.14301 259.495 30.6149C267.039 36.8849 285.114 54.9112 291.335 62.5038C301.328 74.6029 312.202 89.935 311.663 91.2576C311.516 91.6495 312.006 92.9721 312.692 94.1477L313.966 96.352L311.37 95.2743C305.687 92.9721 293.196 88.9064 286.681 87.2899C242.449 76.0235 198.314 80.726 159.077 100.761L152.464 104.141H87.756H23.0967L23.4886 100.124Z" fill="white"/>
</g>
</svg>
