<svg width="28" height="28" viewBox="0 0 28 28" fill="none" xmlns="http://www.w3.org/2000/svg">
<path d="M14.7085 25.9197C14.7085 27.0669 15.6046 28 16.7063 28H19.6496C20.751 28 21.6474 27.0669 21.6474 25.9197V10.3616H14.7085V25.9197Z" fill="#FFAE63"/>
<path d="M20.8747 7.10019C20.8747 6.38733 20.3086 5.80734 19.6129 5.80734H16.7428C16.0471 5.80734 15.481 6.38733 15.481 7.10019V8.72095H20.8747V7.10019Z" fill="#FFAE63"/>
<path d="M6.34375 25.9197C6.34375 27.0669 7.2399 28 8.34113 28H11.2849C12.3863 28 13.2827 27.0669 13.2827 25.9197V21.367H6.34375V25.9197Z" fill="#FFAE63"/>
<path d="M13.2827 17.7305C13.2827 17.2774 12.9152 16.9102 12.4623 16.9102H10.6331V10.8779C11.0849 10.8764 11.4506 10.5098 11.4506 10.0576C11.4506 9.60556 11.0849 9.23898 10.6331 9.23749V8.83459H11.106C11.5589 8.83459 11.9264 8.46738 11.9264 8.01428C11.9264 7.56119 11.5589 7.19397 11.106 7.19397H10.6331V6.79108H11.4094C11.8623 6.79108 12.2297 6.42386 12.2297 5.97076C12.2297 5.51788 11.8623 5.15045 11.4094 5.15045H10.6331V4.74777H11.106C11.5589 4.74777 11.9264 4.38055 11.9264 3.92746C11.9264 3.47437 11.5589 3.10715 11.106 3.10715H10.6331V2.70425C11.0849 2.70255 11.4506 2.33618 11.4506 1.88394C11.4506 1.43192 11.0849 1.06534 10.6331 1.06384V0.820312C10.6331 0.367218 10.2659 0 9.81277 0C9.35989 0 8.99246 0.367218 8.99246 0.820312V1.06384C8.54108 1.06555 8.17535 1.43192 8.17535 1.88394C8.17535 2.33597 8.54108 2.70233 8.99246 2.70404V3.10715H8.51993C8.06705 3.10715 7.69962 3.47437 7.69962 3.92746C7.69962 4.38055 8.06705 4.74777 8.51993 4.74777H8.99246V5.15045H8.21658C7.7637 5.15045 7.39627 5.51788 7.39627 5.97076C7.39627 6.42386 7.7637 6.79108 8.21658 6.79108H8.99246V7.19397H8.51993C8.06705 7.19397 7.69962 7.56119 7.69962 8.01428C7.69962 8.46738 8.06705 8.83459 8.51993 8.83459H8.99246V9.23749C8.54108 9.2392 8.17535 9.60577 8.17535 10.0576C8.17535 10.5096 8.54108 10.8762 8.99246 10.8779V16.9102H7.16406C6.71097 16.9102 6.34375 17.2774 6.34375 17.7305V19.7266H13.2827V17.7305Z" fill="#FFAE63"/>
</svg>
