<svg width="24" height="24" viewBox="0 0 24 24" fill="none" xmlns="http://www.w3.org/2000/svg">
<g clip-path="url(#clip0)">
<path d="M21.4852 1.35663V-0.0468807H16.7567C14.798 -0.0468807 13.2046 1.54669 13.2046 3.50537V20.3462C13.2046 22.3048 14.798 23.8982 16.7567 23.8982V23.9065H21.4852V22.5028H16.9898V21.414H21.4852V20.0105H16.9898V18.9216H21.4852V17.5181H16.9898V16.4292H21.4852V15.0257H16.9898V13.9367H21.4852V12.533H16.9898V11.4069H21.4852V10.0036H16.9898V8.91469H21.4852V7.51118H16.9898V6.42225H21.4852V5.01874H16.9898V3.92981H21.4852V2.52631H16.9898V1.35663H21.4852Z" fill="#FFAE63"/>
<path d="M4.35759 16.9364L3.87712 21.5669C3.81431 22.1752 4.01317 22.7846 4.42259 23.2387C4.8322 23.6928 5.41777 23.9532 6.02934 23.9532C6.64074 23.9532 7.22631 23.6926 7.63592 23.2387C8.04552 22.7844 8.24419 22.1752 8.18139 21.5678L7.7044 16.8926C7.14757 17.086 6.5653 17.1859 5.96636 17.1859C5.41356 17.1859 4.87486 17.1012 4.35759 16.9364Z" fill="#FFAE63"/>
<path d="M5.96644 -0.0421066C4.46442 -0.0421066 3.07264 0.821054 2.04779 2.38826C1.0799 3.86812 0.546875 5.82277 0.546875 7.89224C0.546875 9.9617 1.0799 11.9164 2.04779 13.3964C3.07264 14.9636 4.46442 15.8268 5.96644 15.8268C7.46846 15.8268 8.86006 14.9636 9.88491 13.3964C10.8528 11.9165 11.3858 9.9617 11.3858 7.89224C11.3858 5.82277 10.8528 3.86812 9.88491 2.38826C8.86006 0.821054 7.46846 -0.0421066 5.96644 -0.0421066ZM7.08632 2.61366C7.47981 2.61366 7.77113 2.93519 7.78816 3.31551C7.80519 3.69453 7.45344 4.01717 7.08632 4.01717C6.69301 4.01717 6.40168 3.69563 6.38465 3.31551C6.36763 2.93648 6.71937 2.61366 7.08632 2.61366ZM7.78816 8.03927C7.80519 8.4183 7.45344 8.74111 7.08632 8.74111C6.69301 8.74111 6.40168 8.41958 6.38465 8.03927C6.36763 7.66042 6.71937 7.33761 7.08632 7.33761C7.47981 7.33761 7.77113 7.65914 7.78816 8.03927ZM5.90254 4.97554C6.29603 4.97554 6.58717 5.29726 6.6042 5.67739C6.62123 6.05642 6.26966 6.37923 5.90254 6.37923C5.50904 6.37923 5.2179 6.05752 5.20069 5.67739C5.18385 5.29836 5.53541 4.97554 5.90254 4.97554ZM5.39753 8.03927C5.41456 8.4183 5.06281 8.74111 4.69587 8.74111C4.30238 8.74111 4.01105 8.41958 3.99403 8.03927C3.977 7.66042 4.32874 7.33761 4.69587 7.33761C5.08918 7.33761 5.3805 7.65914 5.39753 8.03927ZM4.69587 2.61366C5.08918 2.61366 5.3805 2.93519 5.39753 3.31551C5.41456 3.69453 5.06281 4.01717 4.69587 4.01717C4.30238 4.01717 4.01105 3.69563 3.99403 3.31551C3.977 2.93648 4.32874 2.61366 4.69587 2.61366ZM3.37531 4.97554C3.76881 4.97554 4.06013 5.29726 4.07716 5.67739C4.094 6.05642 3.74244 6.37923 3.37531 6.37923C2.982 6.37923 2.69068 6.05752 2.67365 5.67739C2.65662 5.29836 3.00818 4.97554 3.37531 4.97554ZM3.37531 10.9256C2.982 10.9256 2.69068 10.604 2.67365 10.2237C2.65662 9.84469 3.00818 9.52206 3.37531 9.52206C3.76881 9.52206 4.06013 9.84359 4.07716 10.2237C4.094 10.6028 3.74244 10.9256 3.37531 10.9256ZM4.69587 13.11C4.30238 13.11 4.01105 12.7883 3.99403 12.4082C3.977 12.0291 4.32874 11.7063 4.69587 11.7063C5.08918 11.7063 5.3805 12.028 5.39753 12.4082C5.41456 12.7872 5.06281 13.11 4.69587 13.11ZM5.90254 10.9256C5.50904 10.9256 5.2179 10.604 5.20069 10.2237C5.18385 9.84469 5.53541 9.52206 5.90254 9.52206C6.29603 9.52206 6.58717 9.84359 6.6042 10.2237C6.62123 10.6028 6.26966 10.9256 5.90254 10.9256ZM7.08632 13.11C6.69301 13.11 6.40168 12.7883 6.38465 12.4082C6.36763 12.0291 6.71937 11.7063 7.08632 11.7063C7.47981 11.7063 7.77113 12.028 7.78816 12.4082C7.80519 12.7872 7.45344 13.11 7.08632 13.11ZM8.38417 10.9256C7.99068 10.9256 7.69954 10.604 7.68233 10.2237C7.66548 9.84469 8.01704 9.52206 8.38417 9.52206C8.77767 9.52206 9.0688 9.84359 9.08601 10.2237C9.10286 10.6028 8.7513 10.9256 8.38417 10.9256ZM8.38417 6.37923C7.99068 6.37923 7.69954 6.05752 7.68233 5.67739C7.66548 5.29836 8.01704 4.97554 8.38417 4.97554C8.77767 4.97554 9.0688 5.29726 9.08601 5.67739C9.10286 6.05642 8.7513 6.37923 8.38417 6.37923Z" fill="#FFAE63"/>
</g>
<defs>
<clipPath id="clip0">
<rect width="24" height="24" fill="white"/>
</clipPath>
</defs>
</svg>
