<svg width="24" height="24" viewBox="0 0 24 24" fill="none" xmlns="http://www.w3.org/2000/svg">
<g clip-path="url(#clip0)">
<path d="M5.25567 1H1.85142C0.795545 1 -0.0634766 1.85902 -0.0634766 2.91489V13.9787C-0.0634766 15.0346 0.795545 15.8936 1.85142 15.8936H5.25567V1ZM2.70248 4.61702C2.70248 4.26451 2.98827 3.97872 3.34078 3.97872C3.69329 3.97872 3.97908 4.26451 3.97908 4.61702V5.46808C3.97908 5.8206 3.69329 6.10638 3.34078 6.10638C2.98827 6.10638 2.70248 5.8206 2.70248 5.46808V4.61702ZM3.97908 12.2766C3.97908 12.6291 3.69329 12.9149 3.34078 12.9149C2.98827 12.9149 2.70248 12.6291 2.70248 12.2766V11.4255C2.70248 11.073 2.98827 10.7872 3.34078 10.7872C3.69329 10.7872 3.97908 11.073 3.97908 11.4255V12.2766ZM3.34078 9.29787C2.8715 9.29787 2.48971 8.91608 2.48971 8.44681C2.48971 7.97753 2.8715 7.59574 3.34078 7.59574C3.81005 7.59574 4.19184 7.97753 4.19184 8.44681C4.19184 8.91608 3.81005 9.29787 3.34078 9.29787Z" fill="#FFAE63"/>
<path d="M20.1492 1H6.53223V15.8936H20.1492C21.2051 15.8936 22.0641 15.0346 22.0641 13.9787V2.91489C22.0641 1.85902 21.2051 1 20.1492 1ZM10.1492 13.3404H8.44712C8.09461 13.3404 7.80882 13.0546 7.80882 12.7021V11C7.80882 10.6475 8.09461 10.3617 8.44712 10.3617C8.79963 10.3617 9.08541 10.6475 9.08541 11V12.0638H10.1492C10.5018 12.0638 10.7875 12.3496 10.7875 12.7021C10.7875 13.0546 10.5018 13.3404 10.1492 13.3404ZM10.1492 4.82979H9.08541V5.89362C9.08541 6.24613 8.79963 6.53191 8.44712 6.53191C8.09461 6.53191 7.80882 6.24613 7.80882 5.89362V4.19149C7.80882 3.83898 8.09461 3.55319 8.44712 3.55319H10.1492C10.5018 3.55319 10.7875 3.83898 10.7875 4.19149C10.7875 4.544 10.5018 4.82979 10.1492 4.82979ZM19.5109 12.7021C19.5109 13.0546 19.2251 13.3404 18.8726 13.3404H17.1705C16.818 13.3404 16.5322 13.0546 16.5322 12.7021C16.5322 12.3496 16.818 12.0638 17.1705 12.0638H18.2343V11C18.2343 10.6475 18.5201 10.3617 18.8726 10.3617C19.2251 10.3617 19.5109 10.6475 19.5109 11V12.7021ZM19.5109 5.89362C19.5109 6.24613 19.2251 6.53191 18.8726 6.53191C18.5201 6.53191 18.2343 6.24613 18.2343 5.89362V4.82979H17.1705C16.818 4.82979 16.5322 4.544 16.5322 4.19149C16.5322 3.83898 16.818 3.55319 17.1705 3.55319H18.8726C19.2251 3.55319 19.5109 3.83898 19.5109 4.19149V5.89362Z" fill="#FFAE63"/>
<path d="M5.60868 17.2376L3.05549 18.5142C2.83923 18.6223 2.70264 18.8433 2.70264 19.0851C2.70264 19.3269 2.83923 19.5479 3.05549 19.656L5.60868 20.9326C5.69732 20.977 5.79502 21 5.89413 21H7.80903V17.1702H5.89413C5.79502 17.1702 5.69732 17.1933 5.60868 17.2376Z" fill="#FFAE63"/>
<path d="M17.8089 17.1702H9.08545V21H17.8089C18.6301 21 19.2982 20.3319 19.2982 19.5106V18.6596C19.2982 17.8383 18.6301 17.1702 17.8089 17.1702Z" fill="#FFAE63"/>
</g>
<defs>
<clipPath id="clip0">
<rect width="24" height="24" fill="white"/>
</clipPath>
</defs>
</svg>
