<svg width="24" height="24" viewBox="0 0 24 24" fill="none" xmlns="http://www.w3.org/2000/svg">
<path d="M19.5625 2.375H18.1875V1.6875C18.1875 1.30748 17.88 1 17.5 1C17.12 1 16.8125 1.30748 16.8125 1.6875V2.375H14.0625V1.6875C14.0625 1.30748 13.755 1 13.375 1C12.995 1 12.6875 1.30748 12.6875 1.6875V2.375H9.9375V1.6875C9.9375 1.30748 9.63002 1 9.25 1C8.86998 1 8.5625 1.30748 8.5625 1.6875V2.375H5.8125V1.6875C5.8125 1.30748 5.50502 1 5.125 1C4.74498 1 4.4375 1.30748 4.4375 1.6875V2.375H3.0625C1.9252 2.375 1 3.3002 1 4.4375V20.9375C1 21.3175 1.30748 21.625 1.6875 21.625H13.0475C12.3872 20.6409 12 19.459 12 18.1875C12 14.7755 14.7755 12 18.1875 12C19.459 12 20.6409 12.3872 21.625 13.0475V4.4375C21.625 3.3002 20.6998 2.375 19.5625 2.375ZM5.8125 18.875H4.4375C4.05748 18.875 3.75 18.5675 3.75 18.1875C3.75 17.8075 4.05748 17.5 4.4375 17.5H5.8125C6.19252 17.5 6.5 17.8075 6.5 18.1875C6.5 18.5675 6.19252 18.875 5.8125 18.875ZM5.8125 16.125H4.4375C4.05748 16.125 3.75 15.8175 3.75 15.4375C3.75 15.0575 4.05748 14.75 4.4375 14.75H5.8125C6.19252 14.75 6.5 15.0575 6.5 15.4375C6.5 15.8175 6.19252 16.125 5.8125 16.125ZM5.8125 13.375H4.4375C4.05748 13.375 3.75 13.0675 3.75 12.6875C3.75 12.3075 4.05748 12 4.4375 12H5.8125C6.19252 12 6.5 12.3075 6.5 12.6875C6.5 13.0675 6.19252 13.375 5.8125 13.375ZM5.8125 10.625H4.4375C4.05748 10.625 3.75 10.3175 3.75 9.9375C3.75 9.55748 4.05748 9.25 4.4375 9.25H5.8125C6.19252 9.25 6.5 9.55748 6.5 9.9375C6.5 10.3175 6.19252 10.625 5.8125 10.625ZM9.9375 18.875H8.5625C8.18248 18.875 7.875 18.5675 7.875 18.1875C7.875 17.8075 8.18248 17.5 8.5625 17.5H9.9375C10.3175 17.5 10.625 17.8075 10.625 18.1875C10.625 18.5675 10.3175 18.875 9.9375 18.875ZM9.9375 16.125H8.5625C8.18248 16.125 7.875 15.8175 7.875 15.4375C7.875 15.0575 8.18248 14.75 8.5625 14.75H9.9375C10.3175 14.75 10.625 15.0575 10.625 15.4375C10.625 15.8175 10.3175 16.125 9.9375 16.125ZM9.9375 13.375H8.5625C8.18248 13.375 7.875 13.0675 7.875 12.6875C7.875 12.3075 8.18248 12 8.5625 12H9.9375C10.3175 12 10.625 12.3075 10.625 12.6875C10.625 13.0675 10.3175 13.375 9.9375 13.375ZM9.9375 10.625H8.5625C8.18248 10.625 7.875 10.3175 7.875 9.9375C7.875 9.55748 8.18248 9.25 8.5625 9.25H9.9375C10.3175 9.25 10.625 9.55748 10.625 9.9375C10.625 10.3175 10.3175 10.625 9.9375 10.625ZM14.0625 13.375H12.6875C12.3075 13.375 12 13.0675 12 12.6875C12 12.3075 12.3075 12 12.6875 12H14.0625C14.4425 12 14.75 12.3075 14.75 12.6875C14.75 13.0675 14.4425 13.375 14.0625 13.375ZM14.0625 10.625H12.6875C12.3075 10.625 12 10.3175 12 9.9375C12 9.55748 12.3075 9.25 12.6875 9.25H14.0625C14.4425 9.25 14.75 9.55748 14.75 9.9375C14.75 10.3175 14.4425 10.625 14.0625 10.625ZM18.1875 10.625H16.8125C16.4325 10.625 16.125 10.3175 16.125 9.9375C16.125 9.55748 16.4325 9.25 16.8125 9.25H18.1875C18.5675 9.25 18.875 9.55748 18.875 9.9375C18.875 10.3175 18.5675 10.625 18.1875 10.625ZM20.25 6.5H2.375V4.4375C2.375 4.05817 2.68317 3.75 3.0625 3.75H4.4375V4.4375C4.4375 4.81752 4.74498 5.125 5.125 5.125C5.50502 5.125 5.8125 4.81752 5.8125 4.4375V3.75H8.5625V4.4375C8.5625 4.81752 8.86998 5.125 9.25 5.125C9.63002 5.125 9.9375 4.81752 9.9375 4.4375V3.75H12.6875V4.4375C12.6875 4.81752 12.995 5.125 13.375 5.125C13.755 5.125 14.0625 4.81752 14.0625 4.4375V3.75H16.8125V4.4375C16.8125 4.81752 17.12 5.125 17.5 5.125C17.88 5.125 18.1875 4.81752 18.1875 4.4375V3.75H19.5625C19.9418 3.75 20.25 4.05817 20.25 4.4375V6.5Z" fill="#FFAE63"/>
<path d="M18.1875 13.375C15.5342 13.375 13.375 15.5342 13.375 18.1875C13.375 20.8408 15.5342 23 18.1875 23C20.8408 23 23 20.8408 23 18.1875C23 15.5342 20.8408 13.375 18.1875 13.375ZM20.9375 18.875H18.1875C17.8075 18.875 17.5 18.5675 17.5 18.1875V15.4375C17.5 15.0575 17.8075 14.75 18.1875 14.75C18.5675 14.75 18.875 15.0575 18.875 15.4375V17.5H20.9375C21.3175 17.5 21.625 17.8075 21.625 18.1875C21.625 18.5675 21.3175 18.875 20.9375 18.875Z" fill="#FFAE63"/>
</svg>
