<svg width="25" height="24" viewBox="0 0 25 24" fill="none" xmlns="http://www.w3.org/2000/svg">
<g clip-path="url(#clip0)">
<path d="M17.5942 6.90605C16.1842 5.50205 14.3423 4.80005 12.5002 4.80005V12L7.40625 17.094C10.2203 19.9081 14.7743 19.9081 17.5882 17.094C20.4022 14.2801 20.4022 9.72006 17.5942 6.90605Z" fill="#C4C4C4"/>
<path d="M12.5 0C5.87001 0 0.5 5.37001 0.5 12C0.5 18.6299 5.87001 23.9999 12.5 23.9999C19.1299 23.9999 24.4999 18.624 24.4999 12C24.5 5.37001 19.13 0 12.5 0ZM12.5 21.6C7.19599 21.6 2.89996 17.304 2.89996 12C2.89996 6.69594 7.19599 2.40002 12.5 2.40002C17.8039 2.40002 22.1 6.69599 22.1 12C22.1 17.3039 17.804 21.6 12.5 21.6Z" fill="#C4C4C4"/>
</g>
<defs>
<clipPath id="clip0">
<rect width="24" height="24" fill="white" transform="translate(0.5)"/>
</clipPath>
</defs>
</svg>
