<svg width="24" height="24" viewBox="0 0 24 24" fill="none" xmlns="http://www.w3.org/2000/svg">
<path d="M23.041 16.5146C23.5577 16.5146 23.9767 16.0957 23.9767 15.579V9.49706C23.9767 7.43334 22.2977 5.75437 20.234 5.75437H18.2691V3.74269C18.2691 1.67897 16.5901 0 14.5264 0H3.76613C1.70241 0 0.0234375 1.67897 0.0234375 3.74269V14.5029C0.0234375 16.5667 1.70241 18.2456 3.76613 18.2456H5.73103V20.2573C5.73103 22.321 7.41 24 9.47372 24H20.234C22.2977 24 23.9767 22.321 23.9767 20.2573C23.9767 19.7406 23.5577 19.3216 23.041 19.3216C22.5242 19.3216 22.1053 19.7406 22.1053 20.2573C22.1053 21.2892 21.2658 22.1287 20.234 22.1287H9.47372C8.44186 22.1287 7.60238 21.2892 7.60238 20.2573V9.49706C7.60238 8.4652 8.44186 7.62572 9.47372 7.62572H20.234C21.2658 7.62572 22.1053 8.4652 22.1053 9.49706V15.579C22.1053 16.0957 22.5242 16.5146 23.041 16.5146ZM1.89478 3.74269C1.89478 2.71083 2.73427 1.87134 3.76613 1.87134H5.09541L1.89478 5.07164V3.74269ZM5.73103 16.3743H3.91327L5.73103 14.5565V16.3743ZM5.73103 9.49706V11.9099L2.16698 15.474C1.9943 15.1907 1.89473 14.8582 1.89473 14.5029V13.0332L5.74397 9.18389C5.73544 9.2872 5.73103 9.39164 5.73103 9.49706ZM1.89478 10.3867V7.71802L7.73536 1.87805C7.73756 1.87584 7.73977 1.87359 7.74197 1.87134H10.4101L1.89478 10.3867ZM11.8869 5.75437H9.47377C9.3683 5.75437 9.26391 5.75878 9.16064 5.76731L12.8254 2.10253C12.8953 2.03269 12.9518 1.95455 12.9949 1.87134H14.5264C14.8817 1.87134 15.2142 1.97091 15.4975 2.14359L11.8999 5.7412C11.8955 5.74556 11.8912 5.74997 11.8869 5.75437ZM16.3977 5.75437H14.5332L16.3977 3.88983V5.75437Z" fill="#C4C4C4"/>
</svg>
