<svg width="24" height="24" viewBox="0 0 24 24" fill="none" xmlns="http://www.w3.org/2000/svg">
<path d="M0.428571 2.57126H1.28571V1.71411H0.428571C0.191878 1.71411 0 1.90599 0 2.14268C0 2.37938 0.191878 2.57126 0.428571 2.57126Z" fill="#C4C4C4"/>
<path d="M21.4263 4.28571H21.8553V3.00129L21.8549 3V1.28571V1.28529V0H2.14062V1.28571V3V4.28571H2.5692H21.4263Z" fill="#C4C4C4"/>
<path d="M23.572 1.71411H22.7148V2.57126H23.572C23.8087 2.57126 24.0005 2.37938 24.0005 2.14268C24.0005 1.90599 23.8087 1.71411 23.572 1.71411Z" fill="#C4C4C4"/>
<path d="M2.23789 24H21.7619C21.9212 24.0009 22.0677 23.9129 22.1416 23.7718C22.2156 23.6307 22.2047 23.4602 22.1133 23.3297C21.4389 22.3989 21.0518 21.2911 20.9999 20.1428V5.14282H2.99989V20.1428C2.94771 21.2911 2.56034 22.399 1.8856 23.3297C1.79417 23.4603 1.78333 23.631 1.8575 23.7722C1.93168 23.9133 2.07846 24.0012 2.23789 24ZM7.2856 19.2857H19.2856C19.5223 19.2857 19.7142 19.4776 19.7142 19.7143C19.7142 19.9509 19.5223 20.1428 19.2856 20.1428H7.2856C7.04891 20.1428 6.85703 19.9509 6.85703 19.7143C6.85703 19.4776 7.04891 19.2857 7.2856 19.2857ZM4.71418 19.2857H5.57132C5.80801 19.2857 5.99989 19.4776 5.99989 19.7143C5.99989 19.9509 5.80801 20.1428 5.57132 20.1428H4.71418C4.47748 20.1428 4.2856 19.9509 4.2856 19.7143C4.2856 19.4776 4.47748 19.2857 4.71418 19.2857Z" fill="#C4C4C4"/>
</svg>
