<svg width="24" height="24" viewBox="0 0 24 24" fill="none" xmlns="http://www.w3.org/2000/svg">
<g clip-path="url(#clip0)">
<path d="M23.3334 20.782L13.8328 11.3782V10.6802C15.8532 9.92552 17.2217 7.9867 17.2217 5.78905C17.2217 2.90978 14.8793 0.567383 12.0001 0.567383C9.1208 0.567383 6.77841 2.90982 6.77841 5.78905C6.77841 6.79964 7.60056 7.6218 8.61115 7.6218C9.62178 7.6218 10.4439 6.79964 10.4439 5.78905C10.4439 4.93095 11.1421 4.23287 12.0001 4.23287C12.8582 4.23287 13.5563 4.93099 13.5563 5.78905C13.5563 6.64716 12.8582 7.34524 12.0001 7.34524C10.9895 7.34524 10.1674 8.1674 10.1674 9.17798V11.3781L0.664226 20.7843C-0.144618 21.5931 -0.0423402 22.2523 0.0905921 22.5732C0.223524 22.8942 0.617306 23.4326 1.76106 23.4326L22.2391 23.4327C23.3828 23.4327 23.7766 22.8943 23.9096 22.5733C24.0425 22.2524 24.1447 21.5932 23.3334 20.782ZM16.6568 19.5692H7.34314L12.0001 14.9124L16.6568 19.5692Z" fill="#C4C4C4"/>
</g>
<defs>
<clipPath id="clip0">
<rect width="24" height="24" fill="white"/>
</clipPath>
</defs>
</svg>
