<svg width="24" height="24" viewBox="0 0 24 24" fill="none" xmlns="http://www.w3.org/2000/svg">
<g clip-path="url(#clip0)">
<path d="M12.0029 21.9359C10.3682 21.9359 8.829 21.4552 7.53005 20.6221L8.49666 19.6249C9.52663 20.2295 10.7247 20.577 12.0029 20.577V19.1713C11.1072 19.1713 10.2609 18.9573 9.51125 18.5783L10.4337 17.6265C8.84108 16.9986 7.71095 15.4438 7.71095 13.6309C7.71095 13.4094 7.7278 13.1915 7.76057 12.9783L6.47243 13.2969C6.51363 12.5945 6.6852 11.9174 6.98421 11.2806L5.71199 10.6831C5.27711 11.6091 5.05684 12.6006 5.05684 13.6309V13.6474L0.403577 14.7991L0.282544 15.1694C-0.23656 16.7554 -0.0340453 18.5347 0.837903 20.0513C1.70985 21.5676 3.14558 22.6379 4.77724 22.9874L5.1581 23.0689L6.53102 21.653C8.13539 22.7479 10.0388 23.3417 12.0029 23.3417C12.6726 23.3417 13.3418 23.2727 13.992 23.1374L13.7053 21.7612C13.1492 21.8769 12.5766 21.9359 12.0029 21.9359Z" fill="#C4C4C4"/>
<path d="M14.8932 13.6311C14.8932 15.2261 13.6003 16.519 12.0053 16.519C10.4103 16.519 9.11719 15.2261 9.11719 13.6311C9.11719 12.036 10.4103 10.7429 12.0053 10.7429C13.6003 10.7429 14.8932 12.036 14.8932 13.6311Z" fill="#C4C4C4"/>
<path d="M8.17145 6.25287L8.55817 7.60144C7.91419 7.9693 7.32715 8.44062 6.82398 9.00385L7.87171 9.94062C8.19489 9.5788 8.56128 9.26496 8.95972 9.00348L9.32556 10.2794C10.0607 9.68995 10.9927 9.3371 12.0059 9.3371C13.0194 9.3371 13.9514 9.68995 14.6865 10.2794L16.7754 2.99121L16.5148 2.70209C15.3988 1.46173 13.7551 0.75 12.0059 0.75C10.2567 0.75 8.61328 1.46173 7.49726 2.70209L7.2367 2.99121L7.77887 4.88416C7.22589 5.15222 6.69544 5.47467 6.19409 5.84986C4.56262 7.07007 3.33252 8.80811 2.73047 10.7437L4.073 11.1612C4.75104 8.98041 6.24994 7.24677 8.17145 6.25287Z" fill="#C4C4C4"/>
<path d="M23.724 15.2012L23.6041 14.8306L21.6881 14.3507C21.7054 14.1126 21.7153 13.8727 21.7153 13.631C21.7153 10.8542 20.5222 8.20453 18.4427 6.36157L17.5103 7.41351C19.289 8.98969 20.3096 11.2562 20.3096 13.631C20.3096 13.7556 20.3058 13.8797 20.3001 14.0035L18.9497 13.6651C18.9503 13.6539 18.9506 13.6422 18.9506 13.631C18.9506 12.021 18.387 10.4518 17.3642 9.21234L16.2798 10.1068C17.0277 11.013 17.4662 12.1404 17.5341 13.311L16.2522 12.9894C16.2835 13.1989 16.3 13.4132 16.3 13.631C16.3 15.448 15.1646 17.0057 13.5664 17.6306L18.827 23.0872L19.2079 23.0066C20.8405 22.6618 22.2795 21.5952 23.1553 20.0813C24.0314 18.5674 24.2385 16.7887 23.724 15.2012Z" fill="#C4C4C4"/>
</g>
<defs>
<clipPath id="clip0">
<rect width="24" height="24" fill="white"/>
</clipPath>
</defs>
</svg>
