<svg width="25" height="24" viewBox="0 0 25 24" fill="none" xmlns="http://www.w3.org/2000/svg">
<g clip-path="url(#clip0)">
<path d="M12.5 0C9.84876 0.00301065 7.30697 1.05755 5.43226 2.93226C3.55755 4.80697 2.50301 7.34876 2.5 10C2.5 17.45 11.5598 23.575 11.9454 23.832C12.1101 23.9404 12.3029 23.9982 12.5001 23.9982C12.6972 23.9982 12.8901 23.9404 13.0548 23.832C13.4403 23.575 22.5 17.45 22.5 10C22.497 7.34876 21.4425 4.80697 19.5677 2.93226C17.693 1.05755 15.1512 0.00301065 12.5 0V0ZM12.5 17C11.1155 17 9.76215 16.5895 8.61101 15.8203C7.45986 15.0511 6.56266 13.9579 6.03284 12.6788C5.50303 11.3997 5.36441 9.99224 5.6345 8.63437C5.9046 7.2765 6.57128 6.02922 7.55025 5.05025C8.52922 4.07128 9.7765 3.4046 11.1344 3.1345C12.4922 2.86441 13.8997 3.00303 15.1788 3.53284C16.4579 4.06266 17.5511 4.95986 18.3203 6.11101C19.0895 7.26215 19.5 8.61553 19.5 10C19.4979 11.8559 18.7597 13.6351 17.4474 14.9474C16.1351 16.2597 14.3559 16.9979 12.5 17Z" fill="#C4C4C4"/>
<path d="M13.5 6H11C10.7348 6 10.4804 6.12041 10.2929 6.33474C10.1054 6.54906 10 6.83975 10 7.14286V14H12V11.7143H13.5C14.163 11.7143 14.7989 11.4133 15.2678 10.8774C15.7366 10.3416 16 9.6149 16 8.85714C16 8.09938 15.7366 7.37266 15.2678 6.83684C14.7989 6.30102 14.163 6 13.5 6ZM13.5 9.42857H12V8.28571H13.5C13.6326 8.28571 13.7598 8.34592 13.8536 8.45308C13.9473 8.56025 14 8.70559 14 8.85714C14 9.0087 13.9473 9.15404 13.8536 9.2612C13.7598 9.36837 13.6326 9.42857 13.5 9.42857Z" fill="#C4C4C4"/>
</g>
<defs>
<clipPath id="clip0">
<rect width="24" height="24" fill="white" transform="translate(0.5)"/>
</clipPath>
</defs>
</svg>
