<svg width="25" height="24" viewBox="0 0 25 24" fill="none" xmlns="http://www.w3.org/2000/svg">
<g clip-path="url(#clip0)">
<path d="M8.84047 18.1802H0.5V21.3533H8.84047V18.1802Z" fill="#C4C4C4"/>
<path d="M5.85378 9.76057C5.47658 9.59609 5.06052 9.5052 4.62378 9.5052C2.91866 9.5052 1.53125 10.8926 1.53125 12.5977V16.7745H7.71636V13.4271L8.73223 13.004L11.0568 7.59204L5.85378 9.76057ZM5.3187 13.6295H3.92891V12.2397H5.31866V13.6295H5.3187Z" fill="#C4C4C4"/>
<path d="M12.9188 6.81512L10.5938 12.2271L13.6315 10.961L15.9565 5.54907L12.9188 6.81512Z" fill="#C4C4C4"/>
<path d="M17.8242 4.77215L18.5369 8.91805L20.8619 3.5061L17.8242 4.77215Z" fill="#C4C4C4"/>
<path d="M17.825 4.77222L15.5 10.1842L18.5377 8.91813L17.825 4.77222Z" fill="#C4C4C4"/>
<path d="M22.9217 2.64673L22.7235 2.72965H22.723L20.3984 8.14114L24.4998 6.43179L22.9217 2.64673Z" fill="#C4C4C4"/>
</g>
<defs>
<clipPath id="clip0">
<rect width="24" height="24" fill="white" transform="translate(0.5)"/>
</clipPath>
</defs>
</svg>
