<svg width="27" height="18" viewBox="0 0 27 18" fill="none" xmlns="http://www.w3.org/2000/svg">
<path d="M4.73488 15.24H12.1509V17.976H0.246875V15.456L7.63888 8.856C8.66288 7.96 9.17488 7.04 9.17488 6.096C9.17488 5.232 8.90288 4.52 8.35888 3.96C7.83088 3.384 7.13488 3.096 6.27088 3.096C5.67888 3.096 5.15088 3.232 4.68688 3.504C4.22288 3.776 3.86288 4.144 3.60688 4.608C3.35088 5.056 3.23088 5.544 3.24688 6.072H0.270875C0.270875 4.936 0.526875 3.936 1.03888 3.072C1.55088 2.208 2.26288 1.544 3.17488 1.08C4.08688 0.599999 5.13488 0.36 6.31888 0.36C7.42288 0.36 8.41488 0.607999 9.29488 1.104C10.1909 1.6 10.8869 2.288 11.3829 3.168C11.8949 4.032 12.1509 5.016 12.1509 6.12C12.1509 6.92 12.0389 7.6 11.8149 8.16C11.6069 8.704 11.3029 9.2 10.9029 9.648C10.5029 10.096 9.91888 10.656 9.15088 11.328L4.73488 15.24ZM21.731 15.144H14.075V12.432L19.619 0.719999H22.907L17.387 12.432H21.731V7.944H24.659V12.432H26.291V15.144H24.659V18H21.731V15.144Z" fill="#C4C4C4"/>
</svg>
