<svg width="24" height="24" viewBox="0 0 24 24" fill="none" xmlns="http://www.w3.org/2000/svg">
<g clip-path="url(#clip0)">
<path d="M12.0001 2.94531C5.37279 2.94531 0 8.36915 0 15.0599C0 18.6877 1.56562 21.0538 1.56562 21.0538L22.4296 21.0548C22.4296 21.0548 23.9997 18.469 23.9997 15.0596C23.9997 8.36915 18.627 2.94531 12.0001 2.94531ZM21.5495 19.5789L2.48874 19.5706C2.48874 19.5706 1.47308 17.6472 1.47308 15.0216C1.47308 9.15749 6.20413 4.4033 12.0404 4.4033C17.8763 4.4033 22.6076 9.15723 22.6076 15.0216C22.6079 17.6768 21.5495 19.5789 21.5495 19.5789Z" fill="#C4C4C4"/>
<path d="M15.3889 6.16221L15.2383 6.16196L12.0374 12.4342L8.72133 6.1084L4.18114 17.5362H3.00781V18.454H9.43574V17.5362H8.16032L9.43574 13.9646L12.0374 18.454L14.5372 13.9646L15.8124 17.5362H14.5372V18.454H20.9138V17.5362H19.8091L15.3889 6.16221Z" fill="#C4C4C4"/>
</g>
<defs>
<clipPath id="clip0">
<rect width="23.9997" height="24" fill="white"/>
</clipPath>
</defs>
</svg>
