<svg width="24" height="24" viewBox="0 0 24 24" fill="none" xmlns="http://www.w3.org/2000/svg">
<path d="M20.5 5.5H17.5C17.284 5.5 17.094 5.36298 17.026 5.158L16.71 4.20902C16.368 3.187 15.415 2.5 14.338 2.5H9.66197C8.58398 2.5 7.63097 3.187 7.29098 4.20902L6.975 5.158C6.906 5.36298 6.71498 5.5 6.50002 5.5H3.50002C1.56998 5.5 0 7.07003 0 9.00002V18C0 19.93 1.56998 21.5 3.50002 21.5H20.5C22.43 21.5 24 19.93 24 18V9.00002C24 7.07003 22.43 5.5 20.5 5.5ZM12 19.5C8.691 19.5 6 16.809 6 13.5C6 10.191 8.691 7.50002 12 7.50002C15.309 7.50002 18 10.191 18 13.5C18 16.809 15.309 19.5 12 19.5Z" fill="#C4C4C4"/>
<path d="M12 9.5C9.79399 9.5 8 11.294 8 13.5C8 13.776 8.22401 14 8.50001 14C8.77601 14 8.99998 13.776 8.99998 13.5C8.99998 11.846 10.346 10.5 12 10.5C12.276 10.5 12.5 10.276 12.5 9.99997C12.5 9.72397 12.276 9.5 12 9.5Z" fill="#C4C4C4"/>
</svg>
