<svg width="24" height="24" viewBox="0 0 24 24" fill="none" xmlns="http://www.w3.org/2000/svg">
<path d="M13.3051 6.18201L15.8 3.68701C16.093 3.39404 16.093 2.91907 15.8 2.62592C14.1091 0.936951 11.862 0 9.47009 0C7.90509 0 6.40509 0.411072 5.07812 1.16107C8.21198 1.39105 11.5141 3.388 13.3051 6.18201Z" fill="#C4C4C4"/>
<path d="M1.6756 4.56494C0.926697 5.89191 0.515625 7.39191 0.515625 8.95691C0.515625 11.3479 1.45258 13.5959 3.14264 15.2859C3.28857 15.4319 3.48065 15.5059 3.67255 15.5059C3.86462 15.5059 4.0567 15.433 4.20264 15.2859L6.68555 12.8029C3.87762 11.0179 1.89771 7.703 1.6756 4.56494Z" fill="#C4C4C4"/>
<path d="M23.2206 16.7928L19.4706 13.0428C19.0956 12.6658 18.4897 12.6508 18.0948 13.0069L16.2998 14.6219L10.7066 8.77885L12.2176 7.26786C10.4217 4.1948 6.39176 2.08781 3.27476 2.75981C2.62162 5.83286 4.74363 9.92381 7.78373 11.7029L9.2938 10.1928L13.5136 14.6639V22.9999C13.5136 23.5518 13.9608 23.9999 14.5138 23.9999C15.0668 23.9999 15.5137 23.5518 15.5137 22.9999V16.6639L15.5518 16.7018C15.5556 16.7059 15.5588 16.7088 15.5628 16.7128L19.3067 20.4568C19.5006 20.6518 19.7566 20.7499 20.0137 20.7499C20.2527 20.7499 20.4927 20.6648 20.6828 20.4928L23.1827 18.2428C23.3867 18.0599 23.5057 17.7999 23.5138 17.5258C23.5207 17.2519 23.4147 16.9869 23.2206 16.7928Z" fill="#C4C4C4"/>
</svg>
