<svg width="24" height="24" viewBox="0 0 24 24" fill="none" xmlns="http://www.w3.org/2000/svg">
<path d="M21.2555 7.1999H21.6839C21.9051 7.1999 22.0839 7.0211 22.0839 6.7999C22.0839 6.5787 21.9051 6.3999 21.6839 6.3999H21.2555C21.0343 6.3999 20.8555 6.5787 20.8555 6.7999C20.8555 7.0211 21.0343 7.1999 21.2555 7.1999Z" fill="#C4C4C4"/>
<path d="M19.1148 7.1999H19.5432C19.7644 7.1999 19.9432 7.0211 19.9432 6.7999C19.9432 6.5787 19.7644 6.3999 19.5432 6.3999H19.1148C18.8936 6.3999 18.7148 6.5787 18.7148 6.7999C18.7148 7.0211 18.8936 7.1999 19.1148 7.1999Z" fill="#C4C4C4"/>
<path d="M23.4 6.3999C23.1788 6.3999 23 6.5787 23 6.7999C23 6.9619 23.0964 7.1019 23.2352 7.1647C23.298 7.3035 23.438 7.3999 23.6 7.3999C23.8212 7.3999 24 7.2211 24 6.9999V6.3999H23.4Z" fill="#C4C4C4"/>
<path d="M23.5992 8.28198C23.378 8.28198 23.1992 8.46078 23.1992 8.68198V9.10278C23.1992 9.32398 23.378 9.50278 23.5992 9.50278C23.8204 9.50278 23.9992 9.32398 23.9992 9.10278V8.68198C23.9992 8.46078 23.8204 8.28198 23.5992 8.28198Z" fill="#C4C4C4"/>
<path d="M23.5992 12.4873C23.378 12.4873 23.1992 12.6661 23.1992 12.8873V13.3081C23.1992 13.5293 23.378 13.7081 23.5992 13.7081C23.8204 13.7081 23.9992 13.5293 23.9992 13.3081V12.8873C23.9992 12.6661 23.8204 12.4873 23.5992 12.4873Z" fill="#C4C4C4"/>
<path d="M23.5992 14.5898C23.378 14.5898 23.1992 14.7686 23.1992 14.9898V15.4102C23.1992 15.6314 23.378 15.8102 23.5992 15.8102C23.8204 15.8102 23.9992 15.6314 23.9992 15.4102V14.9898C23.9992 14.7686 23.8204 14.5898 23.5992 14.5898Z" fill="#C4C4C4"/>
<path d="M23.5992 10.3848C23.378 10.3848 23.1992 10.5636 23.1992 10.7848V11.2052C23.1992 11.4264 23.378 11.6052 23.5992 11.6052C23.8204 11.6052 23.9992 11.4264 23.9992 11.2052V10.7848C23.9992 10.5636 23.8204 10.3848 23.5992 10.3848Z" fill="#C4C4C4"/>
<path d="M23.5992 18.7947C23.378 18.7947 23.1992 18.9735 23.1992 19.1947V19.6151C23.1992 19.8363 23.378 20.0151 23.5992 20.0151C23.8204 20.0151 23.9992 19.8363 23.9992 19.6151V19.1947C23.9992 18.9739 23.8204 18.7947 23.5992 18.7947Z" fill="#C4C4C4"/>
<path d="M23.5992 16.6919C23.378 16.6919 23.1992 16.8707 23.1992 17.0919V17.5127C23.1992 17.7339 23.378 17.9127 23.5992 17.9127C23.8204 17.9127 23.9992 17.7339 23.9992 17.5127V17.0919C23.9992 16.8711 23.8204 16.6919 23.5992 16.6919Z" fill="#C4C4C4"/>
<path d="M23.5992 20.8972C23.378 20.8972 23.1992 21.076 23.1992 21.2972V21.718C23.1992 21.9392 23.378 22.118 23.5992 22.118C23.8204 22.118 23.9992 21.9392 23.9992 21.718V21.2972C23.9992 21.076 23.8204 20.8972 23.5992 20.8972Z" fill="#C4C4C4"/>
<path d="M23.6 23C23.438 23 23.298 23.0964 23.2352 23.2352C23.0964 23.298 23 23.438 23 23.6C23 23.8212 23.1788 24 23.4 24H24V23.4C24 23.1788 23.8212 23 23.6 23Z" fill="#C4C4C4"/>
<path d="M11.2071 23.2H10.7867C10.5655 23.2 10.3867 23.3788 10.3867 23.6C10.3867 23.8212 10.5655 24 10.7867 24H11.2071C11.4283 24 11.6071 23.8212 11.6071 23.6C11.6071 23.3788 11.4279 23.2 11.2071 23.2Z" fill="#C4C4C4"/>
<path d="M9.10205 23.2H8.68125C8.46005 23.2 8.28125 23.3788 8.28125 23.6C8.28125 23.8212 8.46005 24 8.68125 24H9.10205C9.32325 24 9.50205 23.8212 9.50205 23.6C9.50205 23.3788 9.32325 23.2 9.10205 23.2Z" fill="#C4C4C4"/>
<path d="M13.3091 23.2H12.8883C12.6671 23.2 12.4883 23.3788 12.4883 23.6C12.4883 23.8212 12.6671 24 12.8883 24H13.3091C13.5303 24 13.7091 23.8212 13.7091 23.6C13.7091 23.3788 13.5299 23.2 13.3091 23.2Z" fill="#C4C4C4"/>
<path d="M19.6134 23.2H19.193C18.9718 23.2 18.793 23.3788 18.793 23.6C18.793 23.8212 18.9718 24 19.193 24H19.6134C19.8346 24 20.0134 23.8212 20.0134 23.6C20.0134 23.3788 19.8346 23.2 19.6134 23.2Z" fill="#C4C4C4"/>
<path d="M21.7192 23.2H21.2984C21.0772 23.2 20.8984 23.3788 20.8984 23.6C20.8984 23.8212 21.0772 24 21.2984 24H21.7192C21.9404 24 22.1192 23.8212 22.1192 23.6C22.1192 23.3788 21.9404 23.2 21.7192 23.2Z" fill="#C4C4C4"/>
<path d="M17.5122 23.2H17.0914C16.8702 23.2 16.6914 23.3788 16.6914 23.6C16.6914 23.8212 16.8702 24 17.0914 24H17.5122C17.7334 24 17.9122 23.8212 17.9122 23.6C17.9122 23.3788 17.7334 23.2 17.5122 23.2Z" fill="#C4C4C4"/>
<path d="M15.4102 23.2H14.9898C14.7686 23.2 14.5898 23.3788 14.5898 23.6C14.5898 23.8212 14.7686 24 14.9898 24H15.4102C15.6314 24 15.8102 23.8212 15.8102 23.6C15.8102 23.3788 15.6314 23.2 15.4102 23.2Z" fill="#C4C4C4"/>
<path d="M7.16324 23.2352C7.10044 23.0964 6.96044 23 6.79844 23C6.57724 23 6.39844 23.1788 6.39844 23.4V24H6.99844C7.21964 24 7.39844 23.8212 7.39844 23.6C7.39844 23.438 7.30204 23.298 7.16324 23.2352Z" fill="#C4C4C4"/>
<path d="M6.79844 20.8572C6.57724 20.8572 6.39844 21.036 6.39844 21.2572V21.6856C6.39844 21.9068 6.57724 22.0856 6.79844 22.0856C7.01964 22.0856 7.19844 21.9068 7.19844 21.6856V21.2572C7.19844 21.036 7.01964 20.8572 6.79844 20.8572Z" fill="#C4C4C4"/>
<path d="M7.19844 19.1141C7.19844 18.8929 7.01964 18.7141 6.79844 18.7141C6.57724 18.7141 6.39844 18.8929 6.39844 19.1141V19.5425C6.39844 19.7637 6.57724 19.9425 6.79844 19.9425C7.01964 19.9425 7.19844 19.7637 7.19844 19.5425V19.1141Z" fill="#C4C4C4"/>
<path d="M6.8 17.8C6.9464 17.8 7.0692 17.7176 7.1388 17.6H7.2V17.4V17.2V7.2H17.2H17.4H17.6V7.1388C17.7176 7.0692 17.8 6.9468 17.8 6.8C17.8 6.6532 17.7176 6.5308 17.6 6.4612V0H0V17.6H6.4612C6.5308 17.7176 6.6536 17.8 6.8 17.8Z" fill="#C4C4C4"/>
</svg>
