<svg width="24" height="24" viewBox="0 0 24 24" fill="none" xmlns="http://www.w3.org/2000/svg">
<path d="M15.7031 19.2656H0.703125C0.314812 19.2656 0 19.5804 0 19.9688C0 21.1337 0.944391 22.0781 2.10938 22.0781H14.2969C15.4619 22.0781 16.4062 21.1337 16.4062 19.9688C16.4062 19.5804 16.0914 19.2656 15.7031 19.2656Z" fill="#C4C4C4"/>
<path d="M23.6547 3.12988C20.9291 1.51921 18.1649 1.51921 15.4393 3.12988C15.114 3.32211 14.9987 3.73714 15.1785 4.06958L17.3129 8.01786H21.7811L23.9156 4.06958C24.0952 3.73714 23.98 3.32211 23.6547 3.12988Z" fill="#C4C4C4"/>
<path d="M17.7891 9.42188H21.3047V11.5312H17.7891V9.42188Z" fill="#C4C4C4"/>
<path d="M17.7891 20.3203C17.7891 21.2911 18.576 22.0781 19.5469 22.0781C20.5177 22.0781 21.3047 21.2911 21.3047 20.3203V12.9375H17.7891V20.3203Z" fill="#C4C4C4"/>
<path d="M12.0149 7.25077C10.9967 6.23259 9.64303 5.67188 8.20312 5.67188C6.76322 5.67188 5.40952 6.23259 4.39139 7.25077C3.37322 8.26889 2.8125 9.62259 2.8125 11.0625C2.8125 12.5024 3.37322 13.8561 4.39139 14.8742C5.40952 15.8924 6.76322 16.4531 8.20312 16.4531C9.64303 16.4531 10.9967 15.8924 12.0149 14.8742C13.033 13.8561 13.5938 12.5024 13.5938 11.0625C13.5938 9.62259 13.033 8.26889 12.0149 7.25077ZM5.5515 12.4285C5.37155 12.4285 5.19159 12.3599 5.05434 12.2226C4.77975 11.948 4.77975 11.5028 5.05434 11.2282L8.36887 7.91367C8.64342 7.63908 9.08864 7.63908 9.36323 7.91367C9.63783 8.18827 9.63783 8.63344 9.36323 8.90803L6.0487 12.2226C5.91136 12.3599 5.73145 12.4285 5.5515 12.4285ZM11.352 10.8968L8.03742 14.2113C7.90013 14.3486 7.72017 14.4172 7.54027 14.4172C7.36036 14.4172 7.18036 14.3486 7.04311 14.2113C6.76852 13.9367 6.76852 13.4915 7.04311 13.2169L10.3576 9.90239C10.6322 9.6278 11.0774 9.6278 11.352 9.90239C11.6265 10.177 11.6265 10.6222 11.352 10.8968Z" fill="#C4C4C4"/>
<path d="M8.20312 2.85938C3.67992 2.85938 0 6.5393 0 11.0625C0 13.8874 1.43536 16.3833 3.615 17.8594H8.20312C4.44933 17.8594 1.40625 14.8163 1.40625 11.0625C1.40625 7.3087 4.44933 4.26562 8.20312 4.26562C11.9569 4.26562 15 7.3087 15 11.0625C15 14.8163 11.9569 17.8594 8.20312 17.8594H12.7913C14.9709 16.3833 16.4062 13.8874 16.4062 11.0625C16.4062 6.5393 12.7263 2.85938 8.20312 2.85938Z" fill="#C4C4C4"/>
</svg>
